<svg xmlns:xlink="http://www.w3.org/1999/xlink" xmlns="http://www.w3.org/2000/svg" stroke-width="0.501" stroke-linejoin="bevel" fill-rule="evenodd" version="1.1" overflow="visible" viewBox="0 0 75 93.75" x="0px" y="0px"><g fill="none" stroke="black" font-family="Times New Roman" font-size="16" transform="scale(1 -1)"><g transform="translate(0 -75)"><g><path d="M 41.458,0.844 C 39.609,0.856 37.758,0.849 35.907,0.862 C 31.018,0.896 26.127,0.911 21.239,0.962 C 20.354,0.97 19.47,0.966 18.585,0.967 C 17.044,0.968 15.502,0.976 13.96,0.983 C 13.458,0.986 12.956,0.982 12.455,0.977 C 12.113,0.973 11.763,0.956 11.424,0.963 C 11.299,0.965 11.172,0.981 11.048,0.982 C 10.864,0.984 10.667,0.98 10.484,0.989 C 10.169,1.005 9.861,1.025 9.545,1.031 C 9.459,1.03 9.385,1.089 9.368,1.169 L 8.369,1.169 C 8.184,1.169 8.032,1.321 8.032,1.506 C 8.032,1.69 8.184,1.842 8.369,1.842 L 66.828,1.842 C 66.817,2.111 66.836,2.383 66.843,2.65 C 66.846,2.766 66.861,2.887 66.868,3.002 C 66.868,3.016 66.869,3.031 66.87,3.045 C 66.734,3.117 66.643,3.261 66.648,3.424 C 66.644,3.552 66.655,3.691 66.655,3.82 C 66.655,4.205 66.625,4.616 66.574,4.998 C 66.512,5.466 66.445,5.908 66.298,6.336 L 66.196,6.581 L 65.989,6.614 C 65.849,6.629 65.71,6.645 65.57,6.664 C 65.57,6.655 65.571,6.648 65.571,6.641 C 65.571,6.429 65.399,6.257 65.187,6.257 L 64.29,6.257 C 64.285,6.149 64.269,6.05 64.192,5.957 C 64.036,5.767 63.747,5.787 63.604,5.982 L 63.568,6.027 C 63.542,6.08 63.525,6.165 63.513,6.257 L 53.664,6.257 C 50.23,6.145 46.798,6.021 43.365,5.913 C 41.71,5.86 40.054,5.825 38.396,5.788 C 33.679,5.679 28.938,5.659 24.225,5.922 C 23.111,5.984 21.992,6.048 20.879,6.142 C 20.441,6.178 20.005,6.219 19.568,6.257 L 10.717,6.257 C 10.681,6.257 10.645,6.262 10.613,6.271 C 10.293,6.214 9.969,6.213 9.62,6.178 C 9.39,6.157 9.129,6.16 8.906,6.115 L 8.691,6.058 L 8.466,5.76 C 8.452,5.741 8.438,5.723 8.425,5.703 C 8.421,5.669 8.417,5.633 8.413,5.598 C 8.329,4.891 8.289,4.17 8.224,3.46 C 8.191,3.098 8.142,2.697 8.071,2.322 C 8.059,2.144 8.041,1.968 8.017,1.787 C 8.006,1.682 7.956,1.575 7.875,1.503 C 7.866,1.472 7.859,1.44 7.85,1.406 C 7.796,1.208 7.589,1.09 7.39,1.144 C 7.191,1.197 7.073,1.404 7.126,1.605 C 7.19,1.824 7.24,2.043 7.247,2.269 C 7.253,2.344 7.247,2.462 7.242,2.536 C 7.229,2.727 7.24,2.951 7.249,3.143 L 7.256,3.284 L 7.218,3.525 C 7.145,3.901 7.047,4.261 7.079,4.673 C 7.111,5.092 7.258,5.44 7.457,5.783 L 7.472,5.808 L 7.578,6.685 C 7.601,6.879 7.779,7.016 7.972,6.992 C 8.013,6.987 8.051,6.976 8.086,6.957 C 8.217,6.986 8.361,7.002 8.479,7.027 C 9.018,7.127 9.576,7.203 10.125,7.243 C 10.269,7.255 10.435,7.267 10.581,7.261 C 10.629,7.259 10.692,7.252 10.74,7.256 C 10.747,7.255 10.754,7.255 10.761,7.254 L 10.759,7.246 L 10.77,7.29 L 10.668,12.23 C 10.645,13.306 10.615,14.377 10.62,15.453 C 10.644,20.924 10.794,26.389 10.953,31.856 C 10.987,33.01 11.02,34.166 11.058,35.32 C 11.052,35.372 11.046,35.423 11.039,35.475 C 11.008,35.703 10.962,35.936 10.918,36.164 L 10.835,36.596 L 10.812,36.608 L 10.762,36.656 C 10.678,36.748 10.621,37.087 10.579,37.228 C 10.519,37.431 10.457,37.632 10.415,37.836 C 10.412,37.837 10.41,37.838 10.407,37.84 C 10.254,37.877 10.03,38.122 9.896,38.226 L 9.634,38.427 L 9.557,38.457 C 9.38,38.529 9.117,38.676 9.014,38.729 C 8.846,38.814 8.678,38.947 8.517,39.05 C 8.08,39.335 7.664,39.654 7.227,39.938 C 6.901,40.149 6.583,40.357 6.244,40.549 C 6.072,40.647 5.886,40.733 5.709,40.823 C 5.5,40.929 5.285,41 5.072,41.089 C 4.973,41.126 4.921,41.24 4.959,41.339 C 4.971,41.372 4.991,41.399 5.018,41.421 C 5.018,41.505 5.043,41.591 5.098,41.663 C 5.028,41.737 4.966,41.808 4.924,41.876 C 4.881,41.944 4.878,42.03 4.904,42.109 C 4.701,41.85 4.507,41.581 4.328,41.303 C 4.297,41.254 4.23,41.242 4.182,41.273 C 4.134,41.304 4.12,41.371 4.152,41.419 C 4.327,41.705 4.53,41.983 4.722,42.257 C 5.018,42.679 5.327,43.091 5.633,43.505 C 5.637,43.511 5.641,43.517 5.646,43.523 C 5.595,43.567 5.589,43.647 5.633,43.698 C 5.673,43.745 5.743,43.756 5.794,43.724 C 6.194,44.26 6.605,44.787 7.011,45.322 C 7.087,45.424 7.184,45.52 7.268,45.612 C 7.38,45.733 7.486,45.86 7.599,45.981 C 7.678,46.065 7.767,46.155 7.838,46.244 C 7.879,46.294 7.902,46.355 7.938,46.408 C 7.983,46.475 8.072,46.553 8.128,46.614 C 8.305,46.805 8.485,46.995 8.662,47.188 C 9.187,47.755 9.734,48.307 10.27,48.864 C 10.429,49.028 10.589,49.193 10.75,49.358 C 10.7,49.421 10.654,49.487 10.608,49.552 C 10.562,49.611 10.574,49.698 10.633,49.743 C 10.693,49.788 10.78,49.777 10.825,49.718 C 10.866,49.666 10.906,49.612 10.947,49.56 C 12.585,51.236 14.257,52.88 15.929,54.523 L 17.421,55.969 C 17.409,55.985 17.395,55.999 17.382,56.014 C 17.341,56.061 17.344,56.133 17.39,56.175 C 17.437,56.217 17.508,56.213 17.551,56.168 C 17.562,56.153 17.573,56.14 17.584,56.128 L 17.587,56.131 L 17.729,56.268 L 20.216,58.864 C 20.197,58.883 20.176,58.901 20.159,58.921 C 20.101,58.974 20.098,59.064 20.15,59.121 C 20.203,59.178 20.292,59.182 20.35,59.13 C 20.371,59.109 20.391,59.09 20.413,59.07 L 20.415,59.072 L 23.612,62.409 C 24.637,63.477 25.671,64.537 26.714,65.587 C 27.041,65.917 27.366,66.249 27.697,66.571 C 28.255,67.115 28.814,67.656 29.371,68.199 C 29.92,68.733 30.494,69.243 31.042,69.775 C 31.112,69.843 31.186,69.887 31.259,69.945 C 31.308,69.984 31.365,70.037 31.412,70.081 C 31.712,70.362 32.029,70.632 32.338,70.903 C 33.199,71.659 34.083,72.367 34.986,73.07 C 35.408,73.396 35.856,73.717 36.296,74.017 C 36.488,74.147 36.695,74.271 36.882,74.406 C 37.093,74.558 37.386,74.473 37.5,74.245 L 37.529,74.191 C 37.533,74.17 37.533,74.15 37.536,74.13 C 37.557,74.008 37.529,73.918 37.477,73.84 L 37.358,73.713 L 37.273,73.625 C 37.065,73.426 36.854,73.23 36.644,73.032 C 37.171,72.481 37.7,71.933 38.232,71.386 C 39.68,69.897 41.18,68.447 42.681,67.011 C 44.914,64.874 47.195,62.793 49.476,60.708 C 50.161,60.081 50.833,59.439 51.514,58.806 C 52.636,57.763 53.762,56.728 54.874,55.675 C 56.716,53.93 58.574,52.197 60.386,50.421 C 61.528,49.302 62.662,48.172 63.785,47.032 C 64.581,46.224 65.371,45.408 66.15,44.584 C 66.536,44.175 66.923,43.763 67.303,43.349 C 67.53,43.1 67.757,42.846 67.989,42.604 C 68.076,42.509 68.071,42.359 67.975,42.272 C 67.881,42.184 67.729,42.19 67.642,42.285 C 62.484,47.922 56.884,53.164 51.334,58.41 C 50.624,59.081 49.906,59.743 49.202,60.419 C 47.795,61.772 46.4,63.137 45.005,64.503 C 44.424,65.072 43.841,65.64 43.265,66.214 C 41.019,68.453 38.785,70.694 36.6,72.991 C 36.265,72.677 35.93,72.363 35.598,72.046 C 35.472,71.924 35.344,71.8 35.215,71.678 C 35.778,71.089 36.341,70.503 36.91,69.919 C 38.358,68.43 39.861,66.979 41.361,65.543 C 43.592,63.407 45.875,61.327 48.154,59.241 C 48.841,58.613 49.513,57.973 50.193,57.34 C 51.316,56.297 52.443,55.261 53.554,54.206 C 55.395,52.463 57.254,50.729 59.064,48.954 C 60.207,47.833 61.341,46.705 62.464,45.566 C 63.26,44.757 64.05,43.941 64.829,43.116 C 65.216,42.707 65.603,42.296 65.983,41.881 C 66.21,41.633 66.436,41.379 66.668,41.137 C 66.756,41.041 66.75,40.891 66.654,40.804 C 66.559,40.717 66.409,40.722 66.322,40.819 C 61.163,46.454 55.563,51.697 50.013,56.943 C 49.303,57.615 48.586,58.276 47.881,58.952 C 46.474,60.305 45.079,61.671 43.683,63.036 C 43.103,63.604 42.521,64.172 41.945,64.746 C 39.661,67.023 37.391,69.3 35.172,71.637 C 35.062,71.534 34.952,71.433 34.842,71.335 C 34.569,71.093 34.312,70.832 34.043,70.585 C 34.548,69.966 35.076,69.36 35.635,68.792 C 35.969,68.453 36.31,68.124 36.657,67.8 C 36.666,67.81 36.674,67.821 36.682,67.833 C 36.729,67.898 36.775,67.973 36.822,68.034 C 36.935,68.202 37.165,68.248 37.333,68.136 C 37.501,68.023 37.547,67.793 37.435,67.626 L 37.433,67.624 C 37.482,67.621 37.529,67.603 37.571,67.571 L 37.572,67.569 C 37.743,67.721 38.01,67.715 38.172,67.551 C 38.313,67.408 38.336,67.191 38.241,67.025 C 38.292,66.982 38.342,66.94 38.392,66.898 C 38.641,66.687 38.886,66.466 39.132,66.25 C 39.501,65.928 39.864,65.576 40.214,65.234 C 40.653,64.802 41.097,64.369 41.517,63.918 C 42.376,63 43.225,62.078 44.072,61.145 C 45.796,59.245 47.5,57.347 49.406,55.625 C 51.144,54.023 52.796,52.319 54.424,50.607 C 54.861,50.147 55.307,49.694 55.749,49.239 C 56.225,48.748 56.698,48.253 57.183,47.77 C 58.087,46.868 58.986,45.967 59.922,45.105 C 60.005,45.151 60.111,45.131 60.17,45.055 C 60.299,44.88 60.432,44.712 60.57,44.547 C 60.666,44.436 60.777,44.34 60.89,44.243 C 60.964,44.179 61.039,44.115 61.227,43.968 C 61.314,43.968 61.395,43.935 61.453,43.876 C 61.644,43.683 61.836,43.487 62.028,43.294 C 62.213,43.146 62.4,43.001 62.591,42.861 C 62.551,42.926 62.511,42.992 62.474,43.058 C 62.408,43.161 62.438,43.298 62.54,43.364 C 62.642,43.429 62.78,43.4 62.845,43.298 C 63.081,42.928 63.33,42.608 63.62,42.279 C 63.641,42.254 63.662,42.231 63.685,42.206 C 63.736,42.463 64.093,42.541 64.231,42.306 L 64.266,42.245 C 64.273,42.212 64.277,42.18 64.278,42.146 L 64.279,42.119 L 64.276,42.092 L 64.275,42.045 C 64.27,41.976 64.26,41.908 64.259,41.842 C 64.257,41.807 64.255,41.772 64.253,41.737 L 64.282,41.719 L 64.398,41.627 L 64.421,41.579 C 64.452,41.524 64.465,41.464 64.463,41.403 C 64.484,41.38 64.507,41.357 64.53,41.334 C 64.613,41.248 64.691,41.153 64.776,41.067 C 64.893,40.934 64.881,40.729 64.749,40.612 C 64.743,40.607 64.738,40.603 64.733,40.599 C 64.846,40.481 64.958,40.364 65.068,40.247 C 65.148,40.159 65.229,40.072 65.311,39.983 L 65.588,39.766 L 65.603,39.753 C 65.811,39.834 66.021,39.952 66.221,40.086 L 66.548,40.331 L 66.632,40.408 L 66.851,40.598 L 66.88,40.623 C 67.06,40.798 67.221,40.988 67.396,41.166 C 67.738,41.515 68.066,41.915 68.386,42.286 C 68.509,42.429 68.632,42.581 68.762,42.717 C 69.027,42.992 69.28,43.24 69.556,43.477 C 66.786,45.671 64.232,48.146 61.77,50.673 C 61.491,50.96 61.217,51.259 60.945,51.554 C 60.264,52.294 59.591,53.039 58.912,53.781 L 56.414,56.523 L 56.234,56.685 C 55.911,56.978 55.586,57.27 55.268,57.569 C 55.127,57.701 54.97,57.871 54.82,57.988 C 54.792,58.012 54.761,58.049 54.732,58.072 C 54.682,58.111 54.601,58.138 54.552,58.178 C 54.491,58.228 54.44,58.298 54.376,58.35 C 54.222,58.473 54.069,58.625 53.923,58.76 C 52.297,60.275 50.696,61.821 49.098,63.365 C 48.206,64.228 47.307,65.083 46.419,65.953 C 45.264,67.085 44.124,68.23 42.962,69.357 C 42.595,69.713 42.231,70.073 41.858,70.424 C 41.152,71.088 40.451,71.756 39.737,72.413 C 38.961,73.124 38.17,73.817 37.388,74.521 C 37.274,74.621 37.264,74.795 37.363,74.908 C 37.463,75.02 37.638,75.031 37.751,74.931 L 38.567,74.224 C 38.696,74.403 38.944,74.443 39.122,74.314 C 39.171,74.268 39.231,74.232 39.285,74.192 C 39.405,74.101 39.526,74.01 39.648,73.921 C 39.971,73.682 40.293,73.423 40.602,73.165 C 41.683,72.259 42.753,71.324 43.773,70.349 C 44.375,69.773 44.983,69.204 45.58,68.624 C 46.649,67.59 47.707,66.543 48.762,65.494 C 49.198,65.062 49.634,64.63 50.069,64.198 C 50.277,63.991 50.489,63.791 50.695,63.582 C 50.88,63.394 51.072,63.206 51.264,63.025 C 51.486,62.816 51.7,62.589 51.926,62.386 C 52.324,61.993 52.728,61.604 53.124,61.209 C 53.373,60.961 53.617,60.704 53.864,60.454 C 54.061,60.254 54.266,60.055 54.455,59.847 C 54.551,59.743 54.647,59.64 54.746,59.536 C 54.768,59.512 54.809,59.464 54.832,59.443 L 54.891,59.383 C 54.957,59.324 55.036,59.295 55.098,59.226 C 55.304,58.993 55.534,58.779 55.745,58.547 C 56.034,58.234 56.33,57.925 56.621,57.613 C 57.011,57.195 57.39,56.768 57.774,56.346 L 57.827,56.284 L 60.568,53.835 C 61.882,52.659 63.216,51.498 64.518,50.308 C 65.07,49.805 65.622,49.295 66.177,48.795 C 66.757,48.275 67.317,47.729 67.885,47.196 C 68.63,46.494 69.361,45.775 70.081,45.047 C 70.319,44.807 70.553,44.56 70.786,44.316 C 70.846,44.346 70.907,44.37 70.965,44.395 C 71.041,44.423 71.118,44.468 71.197,44.483 C 71.285,44.501 71.331,44.506 71.421,44.493 L 71.473,44.47 C 71.732,44.373 71.845,44.049 71.69,43.815 C 71.632,43.726 71.571,43.635 71.51,43.545 C 71.579,43.472 71.648,43.402 71.719,43.338 C 71.866,43.178 71.857,42.926 71.696,42.777 C 71.615,42.702 71.512,42.667 71.411,42.672 L 71.154,42.79 L 71.111,42.628 C 71.02,42.507 70.847,42.485 70.728,42.575 C 70.722,42.58 70.715,42.584 70.709,42.589 C 69.741,41.439 68.601,40.509 67.396,39.603 C 67.101,39.382 66.81,39.153 66.511,38.938 C 66.429,38.88 66.337,38.797 66.24,38.734 C 66.212,38.512 65.959,38.345 65.731,38.459 L 65.598,38.564 L 65.435,38.733 L 65.308,38.706 C 65.255,38.706 65.202,38.715 65.151,38.738 L 65.098,38.761 C 65.073,38.778 65.037,38.817 65.016,38.84 L 64.99,38.868 L 64.931,38.953 L 64.842,39.074 L 64.818,39.112 C 64.82,39.034 64.823,38.957 64.825,38.882 C 64.854,38.735 64.88,38.59 64.905,38.449 C 64.975,38.016 65.037,37.585 65.1,37.151 C 65.128,36.968 65.139,36.776 65.16,36.591 C 65.169,36.507 65.107,36.429 65.023,36.421 C 64.961,36.416 64.903,36.447 64.873,36.496 C 64.882,35.005 64.883,33.513 64.859,32.021 C 64.841,30.965 64.807,29.91 64.78,28.854 C 64.742,27.418 64.69,25.978 64.616,24.541 C 64.623,24.44 64.621,24.338 64.618,24.238 C 64.606,23.885 64.594,23.53 64.585,23.177 C 64.566,22.411 64.519,21.637 64.477,20.881 C 64.46,20.457 64.442,20.041 64.428,19.627 C 64.417,19.313 64.412,18.998 64.391,18.684 C 64.388,18.639 64.385,18.595 64.382,18.552 C 64.492,18.026 64.573,17.495 64.625,16.962 C 64.676,16.445 64.684,15.904 64.684,15.384 C 64.683,14.439 64.659,13.508 64.614,12.564 C 64.558,11.362 64.474,10.162 64.413,8.961 C 64.533,8.561 64.723,7.977 65.055,7.834 C 65.126,7.803 65.184,7.77 65.26,7.744 C 65.475,7.669 65.714,7.628 65.935,7.563 L 66.129,7.501 L 66.369,7.451 C 66.594,7.389 66.814,7.307 66.99,7.207 L 67.129,7.116 L 67.278,7.042 C 67.497,6.931 67.672,6.814 67.75,6.519 C 67.764,6.461 67.79,6.399 67.8,6.337 C 67.896,5.805 67.866,5.229 67.83,4.688 L 67.827,4.666 L 67.831,4.529 C 67.835,4.256 67.83,3.984 67.823,3.719 C 67.811,3.27 67.794,2.828 67.756,2.38 C 67.746,2.26 67.738,2.138 67.725,2.02 C 67.719,1.96 67.708,1.9 67.702,1.842 L 67.972,1.842 C 68.157,1.842 68.309,1.69 68.309,1.506 C 68.309,1.321 68.157,1.169 67.972,1.169 L 67.738,1.169 C 67.718,0.98 67.561,0.829 67.365,0.825 C 67.1,0.813 66.804,0.799 66.54,0.806 C 66.418,0.81 66.299,0.817 66.177,0.814 C 65.488,0.8 64.796,0.785 64.107,0.782 C 62.392,0.771 60.679,0.75 58.963,0.751 C 53.129,0.754 47.292,0.808 41.458,0.844 Z M 11.62,7.61 C 11.596,7.455 11.572,7.302 11.546,7.149 C 11.539,7.106 11.533,7.066 11.527,7.027 L 14.277,7.027 C 13.386,7.196 12.503,7.391 11.62,7.61 Z M 55.75,7.042 C 56.976,7.077 58.202,7.111 59.426,7.126 C 59.941,7.132 60.455,7.133 60.968,7.144 C 61.337,7.152 61.704,7.13 62.071,7.132 C 62.169,7.132 62.256,7.091 62.318,7.027 L 63.217,7.027 C 63.039,7.071 62.865,7.124 62.694,7.186 C 62.509,7.248 62.409,7.45 62.471,7.634 C 62.532,7.819 62.735,7.918 62.919,7.857 C 63.057,7.798 63.223,7.753 63.393,7.718 C 63.381,7.891 63.371,8.065 63.359,8.24 C 63.306,8.988 63.299,9.754 63.298,10.511 C 63.295,10.545 63.292,10.577 63.289,10.612 C 63.191,11.605 63.209,12.608 63.179,13.605 C 63.164,14.177 63.178,14.75 63.175,15.323 C 63.17,16.072 63.18,16.83 63.198,17.579 C 63.284,21.516 63.423,25.45 63.589,29.383 C 63.582,29.404 63.576,29.422 63.57,29.442 C 63.298,30.256 63.291,31.065 63.256,31.912 C 63.198,33.35 63.237,34.778 63.298,36.214 C 63.318,36.71 63.343,37.206 63.373,37.703 L 63.463,39.119 C 63.447,39.092 63.434,39.068 63.428,39.05 L 63.374,39.034 L 63.358,39.089 C 63.384,39.14 63.409,39.191 63.428,39.24 L 63.482,39.384 L 63.546,40.273 L 63.548,40.378 C 63.548,40.393 63.549,40.408 63.549,40.425 C 63.171,40.771 62.809,41.131 62.477,41.5 C 62.35,41.639 62.125,41.858 62.042,42.016 C 62.02,42.058 62.007,42.103 62.004,42.149 C 61.912,42.244 61.818,42.34 61.726,42.436 C 61.581,42.587 61.444,42.738 61.311,42.894 C 60.65,43.396 60.016,43.916 59.373,44.439 C 58.775,44.925 58.178,45.432 57.599,45.941 C 56.894,46.559 56.186,47.175 55.492,47.806 C 53.587,49.539 51.722,51.303 49.88,53.102 C 48.451,54.499 47.032,55.929 45.666,57.387 C 45.141,57.948 44.595,58.524 44.1,59.11 C 43.776,59.494 43.468,59.856 43.143,60.228 C 42.921,60.482 42.683,60.727 42.453,60.974 C 41.299,62.219 40.06,63.4 38.906,64.649 C 38.54,65.044 38.163,65.437 37.826,65.857 C 37.718,65.987 37.605,66.124 37.503,66.267 C 37.34,66.107 37.176,65.947 37.014,65.79 C 36.66,65.444 36.309,65.101 35.956,64.757 C 36.398,64.432 36.841,64.103 37.297,63.803 C 37.423,63.71 37.449,63.531 37.356,63.406 C 37.265,63.28 37.085,63.255 36.96,63.347 C 36.523,63.689 36.067,64.047 35.611,64.422 C 35.512,64.325 35.412,64.231 35.315,64.135 C 34.854,63.689 34.391,63.244 33.931,62.796 C 34.109,62.651 34.286,62.513 34.463,62.386 C 34.689,62.22 34.907,62.031 35.13,61.862 C 35.399,61.657 35.669,61.467 35.945,61.274 C 36.051,61.199 36.079,61.05 36.003,60.944 C 35.928,60.837 35.778,60.81 35.671,60.885 C 35.207,61.208 34.74,61.551 34.304,61.91 C 34.074,62.098 33.848,62.293 33.625,62.496 C 33.219,62.098 32.814,61.699 32.412,61.298 C 32.478,61.234 32.545,61.172 32.611,61.109 C 32.707,61.013 32.706,60.852 32.61,60.756 C 32.512,60.659 32.353,60.66 32.256,60.757 C 32.192,60.821 32.128,60.885 32.066,60.951 C 31.619,60.5 31.174,60.046 30.737,59.587 C 31.15,59.258 31.564,58.929 31.974,58.594 C 32.059,58.525 32.071,58.397 32.003,58.311 C 31.933,58.226 31.804,58.214 31.719,58.284 C 31.3,58.61 30.884,58.96 30.475,59.312 C 30.079,58.894 29.686,58.471 29.301,58.044 C 29.552,57.843 29.811,57.646 30.077,57.452 C 30.179,57.376 30.203,57.23 30.127,57.127 C 30.051,57.024 29.903,57.001 29.801,57.077 C 29.522,57.267 29.254,57.479 28.995,57.702 C 28.568,57.222 28.149,56.735 27.737,56.241 C 27.971,56.042 28.208,55.849 28.455,55.665 C 28.543,55.593 28.556,55.462 28.485,55.374 C 28.413,55.286 28.283,55.272 28.195,55.343 C 27.959,55.517 27.721,55.753 27.502,55.958 C 27.119,55.506 26.735,55.063 26.34,54.624 C 26.702,54.393 27.063,54.163 27.419,53.931 C 27.523,53.864 27.553,53.724 27.485,53.621 C 27.417,53.519 27.278,53.487 27.175,53.556 C 26.791,53.787 26.419,54.047 26.049,54.301 C 26.02,54.271 25.992,54.241 25.966,54.211 C 25.517,53.725 25.056,53.252 24.589,52.783 C 24.744,52.672 24.899,52.558 25.043,52.435 C 25.158,52.337 25.281,52.251 25.383,52.137 C 25.475,52.035 25.557,51.921 25.63,51.804 C 25.694,51.753 25.703,51.659 25.652,51.595 C 25.602,51.532 25.507,51.523 25.442,51.574 C 25.325,51.615 25.198,51.67 25.087,51.729 C 24.913,51.823 24.748,51.982 24.591,52.106 C 24.466,52.207 24.34,52.306 24.214,52.407 C 24.199,52.391 24.184,52.377 24.169,52.361 C 23.801,51.993 23.416,51.637 23.031,51.283 C 23.087,51.229 23.143,51.175 23.202,51.122 C 23.294,51.036 23.297,50.888 23.21,50.797 C 23.123,50.704 22.974,50.701 22.883,50.788 C 22.818,50.849 22.754,50.91 22.69,50.973 C 22.549,50.844 22.409,50.716 22.271,50.586 C 21.861,50.206 21.446,49.831 21.027,49.46 C 21.072,49.428 21.117,49.395 21.162,49.363 C 21.379,49.206 21.61,49.066 21.83,48.915 C 21.917,48.856 21.941,48.735 21.882,48.646 C 21.824,48.559 21.702,48.536 21.614,48.594 C 21.336,48.775 21.054,48.975 20.786,49.172 C 20.771,49.183 20.754,49.194 20.738,49.206 C 20.73,49.198 20.722,49.19 20.712,49.183 C 20.773,49.1 20.795,48.991 20.748,48.899 C 20.684,48.774 20.582,48.673 20.497,48.562 C 20.299,48.305 20.094,48.054 19.883,47.808 C 19.87,47.793 19.857,47.78 19.847,47.765 C 20.071,47.612 20.295,47.456 20.518,47.298 C 20.604,47.235 20.623,47.111 20.559,47.023 C 20.496,46.937 20.372,46.918 20.285,46.981 C 20.055,47.139 19.819,47.333 19.598,47.505 L 19.596,47.505 C 19.263,47.098 18.836,46.64 18.395,46.189 C 18.559,46.065 18.72,45.938 18.875,45.801 C 18.945,45.753 18.964,45.655 18.916,45.585 C 18.866,45.515 18.769,45.496 18.699,45.544 C 18.491,45.645 18.294,45.764 18.1,45.892 C 17.975,45.767 17.846,45.64 17.718,45.517 C 17.453,45.261 17.189,45.007 16.922,44.756 C 16.962,44.685 16.963,44.596 16.916,44.525 C 16.85,44.423 16.712,44.396 16.611,44.462 L 16.609,44.462 C 16.19,44.068 15.767,43.676 15.346,43.282 C 15.4,43.245 15.455,43.211 15.51,43.176 C 15.589,43.123 15.61,43.013 15.557,42.933 C 15.503,42.855 15.393,42.833 15.315,42.886 C 15.237,42.934 15.161,42.987 15.086,43.04 C 14.766,42.737 14.444,42.434 14.127,42.13 C 14.117,42.119 14.106,42.109 14.095,42.1 C 14.185,42.029 14.178,41.932 14.118,41.861 C 14.042,41.77 13.909,41.752 13.815,41.832 C 13.812,41.83 13.81,41.828 13.809,41.827 C 13.216,41.131 12.625,40.443 12.032,39.76 C 12.008,39.691 11.987,39.621 11.967,39.551 L 11.947,39.13 C 11.912,38.482 11.918,37.822 11.908,37.173 C 11.89,35.931 11.913,34.69 11.917,33.449 C 11.918,33.006 11.935,32.561 11.937,32.116 C 11.944,30.841 11.976,29.56 12.002,28.286 C 12.045,26.302 12.066,24.317 12.097,22.334 C 12.131,20.147 12.142,17.954 12.113,15.769 C 12.099,14.599 12.068,13.438 12.026,12.27 C 11.984,11.093 11.912,9.888 11.775,8.717 C 11.747,8.476 11.714,8.234 11.679,7.993 C 13.498,7.539 15.39,7.221 17.258,7.047 C 17.336,7.04 17.412,7.032 17.49,7.027 L 55.178,7.027 C 55.368,7.032 55.56,7.037 55.75,7.042 Z M 11.269,12.535 L 11.278,12.731 C 11.29,13.233 11.32,13.736 11.324,14.238 C 11.328,14.742 11.348,15.246 11.351,15.749 C 11.355,16.428 11.361,17.107 11.363,17.787 L 11.362,18.403 L 11.353,17.948 C 11.338,16.995 11.327,16.042 11.325,15.091 C 11.323,14.478 11.302,13.863 11.284,13.249 L 11.269,12.535 Z M 44.099,19.547 C 43.73,19.582 43.388,19.602 43.024,19.682 C 42.994,19.686 42.964,19.693 42.934,19.701 C 40.48,19.685 38.011,19.833 35.557,19.922 C 34.532,19.959 33.484,19.98 32.457,19.963 C 32.151,19.958 31.845,19.947 31.539,19.943 C 30.819,19.933 30.092,19.871 29.374,19.821 C 29.198,19.809 29.044,19.942 29.032,20.119 C 29.02,20.295 29.152,20.449 29.329,20.461 C 29.668,20.485 30.006,20.508 30.345,20.531 L 30.329,20.531 C 30.28,20.518 30.229,20.517 30.185,20.524 C 30.172,20.525 30.16,20.528 30.146,20.53 C 29.345,20.53 28.542,20.527 27.739,20.521 C 27.626,20.52 27.531,20.612 27.53,20.726 C 27.529,20.841 27.621,20.934 27.735,20.935 C 28.098,20.937 28.463,20.94 28.827,20.944 C 28.799,21.134 28.772,21.326 28.749,21.517 C 28.729,21.685 28.716,21.927 28.662,22.083 C 28.587,22.302 28.589,22.579 28.565,22.81 C 28.529,23.176 28.504,23.538 28.476,23.902 C 28.385,25.11 28.361,26.322 28.356,27.533 C 28.352,28.528 28.376,29.522 28.418,30.515 L 28.507,32.127 L 28.499,32.127 C 28.393,32.112 28.292,32.186 28.278,32.293 C 28.264,32.399 28.337,32.499 28.444,32.515 C 28.472,32.517 28.501,32.52 28.53,32.524 L 28.576,33.352 L 28.342,37.154 C 28.338,37.225 28.394,37.287 28.464,37.291 C 28.534,37.294 28.596,37.24 28.6,37.17 L 28.723,35.593 L 28.741,35.862 C 28.777,36.36 28.815,36.857 28.85,37.355 C 28.085,37.328 27.318,37.322 26.559,37.35 C 26.421,37.352 26.309,37.469 26.311,37.607 C 26.313,37.746 26.429,37.857 26.569,37.855 C 27.305,37.826 28.047,37.84 28.786,37.876 C 28.776,37.917 28.765,37.959 28.756,37.999 C 28.69,38.013 28.625,38.028 28.56,38.041 C 28.399,38.073 28.292,38.231 28.324,38.394 C 28.355,38.556 28.514,38.662 28.676,38.631 C 28.716,38.621 28.756,38.612 28.795,38.602 C 28.825,38.659 28.865,38.712 28.916,38.762 C 28.924,38.771 28.935,38.777 28.944,38.785 C 28.95,38.874 28.957,38.961 28.966,39.049 C 28.981,39.182 28.968,39.337 29.003,39.463 C 29.028,39.56 29.098,39.64 29.185,39.685 C 29.227,39.706 29.266,39.72 29.314,39.723 C 29.541,39.739 29.785,39.751 30.013,39.756 C 30.862,39.774 31.722,39.841 32.574,39.884 C 34.324,39.971 36.076,40.049 37.828,40.104 C 38.635,40.128 39.442,40.138 40.251,40.159 C 40.613,40.168 40.987,40.178 41.349,40.173 C 41.921,40.165 42.496,40.17 43.071,40.162 C 43.3,40.159 43.56,40.163 43.786,40.145 C 43.942,40.131 44.105,40.133 44.262,40.125 C 44.51,40.113 44.756,40.09 45.003,40.077 C 45.519,40.048 46.331,39.962 46.793,39.729 C 47.069,39.589 47.046,39.422 47.068,39.143 C 47.092,38.857 47.109,38.573 47.13,38.286 C 47.136,38.204 47.142,38.12 47.146,38.036 C 47.221,38.022 47.295,38.004 47.369,37.987 C 47.559,37.939 47.741,37.877 47.928,37.827 C 48.133,37.779 48.26,37.572 48.211,37.366 C 48.163,37.163 47.955,37.036 47.75,37.084 C 47.561,37.111 47.373,37.15 47.187,37.189 C 47.2,36.837 47.211,36.483 47.223,36.134 C 47.259,35.103 47.268,34.059 47.25,33.026 C 47.249,32.948 47.248,32.872 47.246,32.795 C 47.331,32.758 47.401,32.687 47.436,32.598 C 47.461,33.183 47.484,33.765 47.507,34.35 C 47.525,34.767 47.55,35.197 47.55,35.613 C 47.55,36.031 47.633,36.452 47.649,36.873 C 47.651,36.977 47.74,37.06 47.845,37.058 C 47.949,37.056 48.031,36.969 48.03,36.864 C 48.02,36.487 48.062,36.115 48.054,35.743 C 48.034,34.932 47.996,34.123 47.976,33.312 C 47.919,31.155 47.85,28.997 47.878,26.84 C 47.889,26.012 47.904,25.184 47.937,24.363 C 47.957,24.113 47.975,23.871 47.99,23.629 C 48.009,23.278 48.044,22.926 48.054,22.575 C 48.057,22.479 48.059,22.386 48.062,22.288 C 48.086,21.976 48.111,21.659 48.134,21.341 C 48.141,21.183 48.068,21.042 47.95,20.956 C 47.955,20.932 47.958,20.907 47.959,20.883 C 47.962,20.656 47.781,20.465 47.554,20.462 C 47.538,20.461 47.524,20.461 47.508,20.46 C 47.528,20.362 47.544,20.26 47.54,20.192 C 47.53,20.008 47.42,19.867 47.249,19.804 C 47.186,19.78 47.119,19.764 47.053,19.749 C 46.736,19.671 46.45,19.614 46.126,19.575 C 46.016,19.561 45.905,19.56 45.796,19.546 C 45.735,19.539 45.687,19.52 45.623,19.519 C 45.109,19.509 44.612,19.498 44.099,19.547 Z M 29.868,20.958 L 29.862,21.074 C 29.855,21.219 29.848,21.362 29.841,21.508 C 29.795,22.471 29.747,23.432 29.708,24.396 C 29.629,26.299 29.561,28.208 29.523,30.112 C 29.507,30.823 29.493,31.534 29.483,32.247 C 29.461,32.245 29.438,32.242 29.416,32.24 C 29.39,32.237 29.362,32.235 29.334,32.232 L 29.224,29.98 L 29.257,29.652 C 29.316,29.042 29.367,28.432 29.421,27.822 C 29.468,27.284 29.521,26.745 29.554,26.204 C 29.592,25.611 29.598,24.993 29.609,24.397 C 29.625,23.394 29.621,22.398 29.586,21.395 C 29.583,21.283 29.576,21.169 29.575,21.056 L 29.562,20.958 L 29.562,20.955 C 29.664,20.956 29.767,20.957 29.868,20.958 Z M 30.762,20.975 C 33.039,21.014 35.314,21.049 37.591,21.099 C 37.565,21.623 37.571,22.183 37.58,22.705 C 37.586,23.049 37.583,23.393 37.591,23.737 C 37.608,24.478 37.636,25.218 37.672,25.959 C 37.737,27.247 37.767,28.532 37.77,29.821 C 37.772,30.499 37.727,31.181 37.684,31.858 C 37.672,32.037 37.809,32.193 37.988,32.205 C 38.166,32.216 38.323,32.081 38.334,31.901 C 38.359,31.467 38.394,31.035 38.413,30.601 C 38.46,29.422 38.458,28.235 38.447,27.055 C 38.438,26.187 38.436,25.318 38.424,24.451 C 38.409,23.34 38.374,22.227 38.418,21.117 C 39.404,21.14 40.394,21.18 41.379,21.196 C 42.614,21.213 43.849,21.213 45.083,21.235 C 45.558,21.242 46.033,21.253 46.508,21.265 L 46.49,21.397 C 46.472,21.552 46.462,21.709 46.443,21.863 C 46.423,22.018 46.417,22.174 46.404,22.33 C 46.364,22.79 46.338,23.261 46.325,23.724 C 46.292,24.86 46.263,26.008 46.292,27.144 C 46.304,27.656 46.306,28.17 46.314,28.68 C 46.328,29.655 46.356,30.632 46.378,31.606 C 46.381,31.775 46.383,31.945 46.385,32.114 C 44.799,32.128 43.211,32.165 41.625,32.216 C 40.379,32.257 39.132,32.271 37.887,32.304 C 36.888,32.328 35.875,32.349 34.876,32.347 C 34.413,32.346 33.943,32.329 33.48,32.336 C 32.534,32.347 31.592,32.37 30.647,32.323 C 30.631,32.322 30.615,32.321 30.599,32.32 C 30.6,31.006 30.594,29.692 30.598,28.38 C 30.6,27.357 30.596,26.331 30.597,25.309 C 30.598,24.741 30.604,24.171 30.596,23.603 C 30.59,23.15 30.597,22.692 30.595,22.238 C 30.594,22.012 30.613,21.784 30.594,21.557 C 30.584,21.443 30.59,21.329 30.593,21.215 C 30.594,21.155 30.6,21.065 30.598,20.971 C 30.652,20.972 30.706,20.973 30.762,20.975 Z M 47.186,24.6 C 47.186,24.795 47.186,24.99 47.187,25.187 C 47.178,25.402 47.166,25.62 47.153,25.837 C 47.156,25.32 47.164,24.804 47.176,24.286 C 47.178,24.16 47.182,24.034 47.186,23.908 C 47.185,24.14 47.185,24.37 47.186,24.6 Z M 47.404,31.82 C 47.411,31.982 47.418,32.143 47.424,32.306 C 47.384,32.227 47.316,32.165 47.233,32.133 C 47.225,31.728 47.218,31.323 47.21,30.918 C 47.248,30.598 47.286,30.278 47.323,29.956 C 47.35,30.578 47.376,31.199 47.404,31.82 Z M 29.353,32.632 L 29.353,32.635 L 29.352,32.635 L 29.353,32.632 Z M 29.479,32.651 C 29.471,33.324 29.47,33.999 29.481,34.674 C 29.483,34.872 29.487,35.071 29.491,35.27 C 29.475,35.001 29.459,34.733 29.442,34.464 L 29.353,32.635 C 29.395,32.639 29.436,32.645 29.479,32.651 Z M 32.127,32.892 C 32.678,32.939 33.27,32.987 33.818,32.983 C 34.191,32.981 34.565,32.996 34.939,32.997 C 35.342,32.998 35.743,32.999 36.147,33.001 C 37.206,33.007 38.268,32.99 39.327,32.964 C 40.349,32.941 41.37,32.923 42.393,32.899 C 43.726,32.869 45.061,32.831 46.397,32.824 C 46.399,32.915 46.401,33.008 46.404,33.1 C 46.413,33.357 46.408,33.615 46.414,33.872 C 46.418,34.064 46.422,34.257 46.424,34.45 C 46.345,35.426 46.278,36.404 46.236,37.381 C 45.907,37.439 45.569,37.492 45.243,37.529 C 44.884,37.568 44.526,37.605 44.166,37.64 C 43.405,37.713 42.621,37.719 41.857,37.744 C 41.229,37.765 40.589,37.742 39.959,37.737 C 39.11,37.731 38.255,37.689 37.405,37.658 C 35.826,37.599 34.223,37.537 32.626,37.587 C 32.409,37.572 32.191,37.555 31.973,37.539 C 31.192,37.483 30.4,37.427 29.61,37.387 C 29.603,37.269 29.596,37.151 29.59,37.034 C 29.64,37.093 29.716,37.131 29.8,37.129 C 29.943,37.125 30.056,37.004 30.052,36.861 C 30.034,36.191 30.003,35.514 30.009,34.844 L 30.009,34.788 L 30.036,34.81 C 30.092,34.849 30.16,34.871 30.232,34.871 C 30.425,34.871 30.582,34.713 30.582,34.521 C 30.591,33.938 30.595,33.355 30.598,32.771 C 31.108,32.816 31.62,32.849 32.127,32.892 Z M 39.195,38.807 C 40.332,38.844 41.469,38.863 42.602,38.759 C 43.145,38.709 43.746,38.67 44.27,38.527 C 44.379,38.496 44.488,38.459 44.598,38.414 C 45.132,38.364 45.681,38.31 46.207,38.213 C 46.201,38.449 46.196,38.683 46.195,38.918 C 46.193,38.989 46.235,39.053 46.296,39.083 L 46.297,39.068 L 46.296,39.097 L 46.204,39.13 C 45.707,39.239 45.257,39.281 44.746,39.325 C 44.542,39.342 44.335,39.342 44.132,39.359 C 43.727,39.394 43.311,39.383 42.905,39.397 C 42.344,39.417 41.764,39.414 41.201,39.406 C 40.263,39.392 39.327,39.386 38.387,39.358 C 36.606,39.307 34.826,39.236 33.046,39.163 C 32.265,39.131 31.479,39.075 30.701,39.059 C 30.529,39.054 30.352,39.03 30.181,39.029 C 30.027,39.028 29.858,39.021 29.7,39.011 L 29.669,38.446 C 30.661,38.294 31.662,38.23 32.667,38.212 C 34.84,38.451 37.01,38.734 39.195,38.807 Z M 10.283,38.841 L 10.311,38.951 L 10.231,38.977 C 10.181,39.002 10.134,39.037 10.096,39.083 C 9.942,39.263 9.962,39.535 10.142,39.691 C 10.283,39.807 10.327,39.879 10.418,40.004 C 10.031,40.282 9.644,40.559 9.253,40.831 C 8.453,41.387 7.653,41.933 6.882,42.518 C 6.743,42.35 6.602,42.183 6.468,42.013 C 6.384,41.909 6.3,41.803 6.215,41.697 C 6.387,41.579 6.56,41.464 6.731,41.345 L 8.108,40.419 L 8.245,40.335 C 8.461,40.2 8.677,40.062 8.887,39.923 C 9.05,39.816 9.222,39.721 9.385,39.616 C 9.545,39.516 9.686,39.39 9.835,39.277 C 9.924,39.212 10.007,39.14 10.077,39.054 C 10.093,39.032 10.1,39.019 10.106,39.001 L 10.116,38.977 L 10.283,38.841 Z M 10.99,40.649 C 10.992,40.648 10.996,40.648 11,40.647 C 11.214,40.82 11.473,40.945 11.698,40.768 C 11.72,40.75 11.743,40.726 11.762,40.702 C 11.78,40.71 11.798,40.716 11.817,40.72 C 11.856,40.777 11.894,40.834 11.931,40.891 C 11.866,40.931 11.803,40.97 11.742,41.012 C 11.682,41.053 11.622,41.093 11.563,41.132 C 11.409,40.992 11.257,40.85 11.104,40.709 C 11.014,40.626 10.872,40.631 10.79,40.72 C 10.707,40.809 10.712,40.95 10.801,41.034 C 10.93,41.152 11.057,41.272 11.186,41.391 C 11.009,41.515 10.834,41.641 10.663,41.774 C 10.257,42.086 9.841,42.4 9.426,42.7 C 9.201,42.863 8.976,43.035 8.748,43.189 C 8.569,43.31 8.384,43.424 8.205,43.548 C 8.101,43.62 7.99,43.683 7.879,43.745 C 7.612,43.42 7.345,43.093 7.084,42.765 C 7.071,42.747 7.058,42.733 7.045,42.717 C 7.108,42.672 7.17,42.626 7.233,42.582 C 8.317,41.803 9.45,41.104 10.549,40.349 C 10.602,40.538 10.786,40.667 10.99,40.649 Z M 12.334,41.432 L 12.427,41.555 L 12.575,41.76 C 12.744,41.982 12.917,42.202 13.093,42.419 C 13.07,42.435 13.05,42.453 13.029,42.469 C 12.646,42.123 12.264,41.777 11.884,41.428 C 11.984,41.368 12.084,41.308 12.183,41.249 C 12.232,41.31 12.288,41.367 12.334,41.432 Z M 12.379,42.499 C 12.472,42.586 12.566,42.672 12.659,42.757 C 12.626,42.782 12.593,42.807 12.561,42.831 C 11.764,43.414 10.91,43.995 10.18,44.658 C 9.875,44.932 9.596,45.209 9.324,45.502 C 8.907,44.992 8.486,44.484 8.068,43.974 C 8.72,43.584 9.353,43.163 9.972,42.716 C 10.288,42.488 10.617,42.252 10.942,42.04 C 11.123,41.921 11.304,41.792 11.488,41.672 C 11.785,41.948 12.08,42.224 12.379,42.499 Z M 5.735,42.436 C 5.894,42.638 6.06,42.837 6.223,43.036 C 6.123,43.117 6.023,43.2 5.921,43.286 C 5.624,42.968 5.335,42.643 5.062,42.306 C 5.184,42.377 5.328,42.349 5.441,42.259 C 5.471,42.236 5.5,42.211 5.531,42.188 C 5.6,42.271 5.669,42.353 5.735,42.436 Z M 13.425,42.826 C 13.396,42.8 13.368,42.774 13.34,42.748 C 13.345,42.745 13.347,42.741 13.352,42.739 C 13.377,42.768 13.401,42.797 13.425,42.826 Z M 13.896,43.887 C 13.605,44.106 13.317,44.331 13.034,44.554 C 12.266,45.157 11.404,45.935 10.909,46.784 C 10.874,46.838 10.893,46.913 10.947,46.947 C 11.002,46.981 11.077,46.964 11.112,46.908 C 11.168,46.826 11.215,46.732 11.273,46.648 C 11.329,46.57 11.389,46.493 11.445,46.415 C 11.546,46.275 11.686,46.125 11.807,46.002 C 12.493,45.307 13.184,44.778 13.983,44.21 C 14.033,44.173 14.084,44.138 14.135,44.103 C 14.56,44.49 14.987,44.875 15.415,45.262 C 15.31,45.335 15.203,45.406 15.097,45.478 C 13.929,46.263 12.812,47.123 11.83,48.133 C 11.77,48.192 11.712,48.253 11.654,48.315 C 10.954,47.484 10.259,46.652 9.574,45.809 C 9.551,45.779 9.528,45.752 9.505,45.723 C 9.904,45.293 10.313,44.922 10.789,44.54 C 11.425,44.029 12.143,43.586 12.815,43.123 C 12.86,43.091 12.906,43.057 12.952,43.026 C 13.266,43.313 13.581,43.601 13.896,43.887 Z M 6.537,43.415 L 8.933,46.338 L 8.601,45.983 C 8.52,45.887 8.451,45.858 8.361,45.785 C 8.316,45.747 8.265,45.681 8.222,45.636 C 8.146,45.554 8.069,45.473 7.992,45.391 C 7.847,45.233 7.703,45.069 7.553,44.916 C 7.156,44.512 6.733,44.133 6.339,43.725 C 6.255,43.638 6.172,43.551 6.091,43.465 C 6.186,43.383 6.283,43.304 6.381,43.226 C 6.434,43.288 6.486,43.352 6.537,43.415 Z M 70.025,43.842 L 70.02,43.846 L 70.025,43.842 Z M 70.074,43.885 C 70.084,43.893 70.094,43.9 70.104,43.906 C 69.801,44.224 69.483,44.537 69.175,44.841 C 68.705,45.306 68.235,45.773 67.76,46.234 C 67.184,46.792 66.586,47.332 66.005,47.885 C 65.628,48.246 65.234,48.598 64.848,48.949 L 62.922,50.683 L 64.104,49.393 C 64.366,49.113 64.624,48.826 64.897,48.555 C 65.437,48.01 65.967,47.459 66.517,46.922 C 67.228,46.225 67.964,45.544 68.722,44.891 L 70.02,43.846 C 70.038,43.859 70.057,43.871 70.074,43.885 Z M 16.932,46.634 C 16.954,46.663 16.98,46.695 17.004,46.723 C 16.952,46.765 16.9,46.804 16.849,46.845 C 16.394,47.2 15.963,47.606 15.535,47.991 C 14.816,48.637 14.113,49.307 13.4,49.959 C 13.337,50.017 13.332,50.117 13.389,50.179 C 13.447,50.242 13.546,50.247 13.609,50.19 C 14.689,49.194 15.795,48.214 16.941,47.295 C 17.047,47.208 17.152,47.123 17.259,47.038 C 17.63,47.495 18.006,47.949 18.39,48.397 L 18.392,48.4 C 17.767,48.864 17.13,49.329 16.55,49.839 C 15.857,50.445 15.214,51.057 14.614,51.757 C 14.602,51.745 14.591,51.731 14.581,51.72 C 14.104,51.186 13.626,50.649 13.164,50.102 C 12.724,49.581 12.285,49.062 11.846,48.541 C 12.208,48.183 12.605,47.842 12.992,47.542 C 13.235,47.353 13.479,47.157 13.732,46.985 C 13.946,46.838 14.157,46.667 14.367,46.513 C 14.777,46.207 15.218,45.912 15.645,45.631 C 15.679,45.608 15.714,45.586 15.748,45.563 C 16.141,45.919 16.537,46.275 16.932,46.634 Z M 19.734,49.972 C 19.274,50.337 18.826,50.717 18.391,51.117 C 17.6,51.843 16.808,52.572 16.119,53.396 C 16.051,53.327 15.985,53.257 15.919,53.188 C 15.752,53.013 15.592,52.833 15.426,52.657 C 15.195,52.414 14.97,52.16 14.747,51.907 C 14.748,51.905 14.751,51.903 14.753,51.901 C 15.17,51.415 15.608,50.985 16.075,50.55 C 16.264,50.373 16.466,50.214 16.663,50.046 C 17.046,49.715 17.485,49.411 17.896,49.112 C 18.122,48.947 18.353,48.785 18.583,48.627 C 18.968,49.074 19.351,49.524 19.734,49.972 Z M 21.554,52.062 C 21.402,52.205 21.247,52.346 21.093,52.488 C 20.05,53.445 18.988,54.35 18.003,55.355 L 16.88,54.188 C 16.686,53.982 16.49,53.78 16.293,53.578 C 16.367,53.49 16.445,53.405 16.515,53.331 C 16.982,52.831 17.439,52.356 17.949,51.901 C 18.606,51.315 19.28,50.772 19.97,50.245 C 20.492,50.855 21.02,51.46 21.554,52.062 Z M 52.947,51.088 L 52.674,51.371 C 52.089,51.985 51.493,52.599 50.89,53.194 C 50.611,53.468 50.337,53.755 50.051,54.021 C 49.84,54.219 49.632,54.423 49.422,54.621 C 49.257,54.778 49.073,54.929 48.915,55.091 L 47.37,56.577 L 49.106,54.798 C 50.007,53.91 50.905,53.024 51.816,52.142 L 52.947,51.088 Z M 23.328,52.716 C 23.403,52.79 23.478,52.865 23.553,52.941 C 23.534,52.955 23.517,52.969 23.499,52.984 C 23.142,52.6 22.79,52.213 22.443,51.824 L 22.444,51.823 C 22.739,52.121 23.033,52.419 23.328,52.716 Z M 22.858,53.505 C 22.685,53.645 22.512,53.784 22.338,53.924 C 21.935,54.249 21.548,54.601 21.161,54.946 C 21.06,55.037 20.959,55.139 20.861,55.235 C 20.342,55.745 19.882,56.249 19.433,56.82 L 19.149,56.546 L 18.186,55.545 L 18.16,55.516 C 18.512,55.164 18.882,54.828 19.255,54.501 C 19.801,54.021 20.36,53.556 20.924,53.097 C 21.223,52.854 21.522,52.608 21.82,52.358 C 22.161,52.743 22.506,53.129 22.858,53.505 Z M 25.347,54.789 C 25.324,54.805 25.301,54.822 25.278,54.837 C 24.787,54.347 24.304,53.845 23.826,53.338 C 23.85,53.321 23.874,53.303 23.897,53.286 C 24.387,53.78 24.876,54.277 25.347,54.789 Z M 24.6,55.322 C 24.309,55.532 24.021,55.743 23.732,55.957 C 22.932,56.548 22.13,57.181 21.379,57.835 C 21.224,57.969 21.067,58.104 20.911,58.238 C 20.709,58.047 20.508,57.857 20.307,57.666 L 19.668,57.047 L 19.667,57.046 C 19.977,56.651 20.283,56.297 20.634,55.936 C 21.387,55.158 22.284,54.466 23.161,53.824 C 23.637,54.327 24.114,54.827 24.6,55.322 Z M 25.75,55.236 C 25.869,55.372 25.989,55.508 26.108,55.644 C 25.926,55.472 25.744,55.298 25.565,55.123 C 25.582,55.111 25.601,55.099 25.619,55.088 C 25.662,55.137 25.706,55.186 25.75,55.236 Z M 25.691,56.39 C 25.928,56.62 26.163,56.848 26.398,57.078 C 26.119,57.375 25.843,57.676 25.559,57.967 C 25.404,58.124 25.254,58.288 25.099,58.443 C 24.797,58.749 24.48,59.037 24.164,59.327 C 23.952,59.52 23.698,59.723 23.464,59.892 C 23.357,59.971 23.24,60.044 23.138,60.126 C 23.097,60.155 23.087,60.211 23.116,60.251 C 23.143,60.291 23.202,60.301 23.241,60.274 C 23.461,60.106 23.689,59.954 23.908,59.782 C 24.372,59.419 24.826,59.006 25.251,58.601 C 25.707,58.164 26.153,57.718 26.606,57.279 C 26.922,57.587 27.239,57.896 27.557,58.203 C 27.704,58.346 27.853,58.49 28,58.636 C 27.533,59.102 27.079,59.577 26.624,60.054 C 26.017,60.688 25.416,61.307 24.778,61.91 C 23.555,60.756 22.338,59.596 21.12,58.436 C 21.248,58.327 21.377,58.219 21.507,58.112 C 21.954,57.739 22.403,57.367 22.869,57.016 C 23.416,56.603 23.975,56.213 24.534,55.818 C 24.643,55.742 24.753,55.665 24.865,55.589 C 25.136,55.859 25.42,56.12 25.691,56.39 Z M 47.028,56.93 L 46.36,57.646 C 45.689,58.378 45.039,59.128 44.39,59.879 C 43.374,61.053 42.365,62.225 41.322,63.376 C 40.746,64.01 40.143,64.627 39.524,65.224 C 39.519,65.216 39.513,65.207 39.508,65.199 C 39.471,65.152 39.419,65.121 39.364,65.115 C 39.749,64.695 40.156,64.282 40.555,63.88 C 41.169,63.258 41.772,62.628 42.38,62.002 C 42.825,61.544 43.283,61.07 43.701,60.591 C 43.904,60.354 44.096,60.114 44.302,59.883 C 44.522,59.634 44.751,59.381 44.964,59.128 C 45.097,58.971 45.25,58.806 45.391,58.657 C 45.731,58.298 46.064,57.933 46.401,57.573 L 47.028,56.93 Z M 29.507,60.159 C 28.806,60.78 28.122,61.403 27.456,62.07 C 27.049,62.475 26.672,62.907 26.312,63.354 C 25.972,63.034 25.632,62.714 25.294,62.395 C 25.182,62.289 25.07,62.185 24.959,62.08 C 25.155,61.9 25.347,61.714 25.545,61.537 C 25.761,61.342 25.969,61.127 26.177,60.923 C 26.682,60.432 27.181,59.934 27.691,59.449 C 27.884,59.264 28.08,59.084 28.275,58.909 C 28.689,59.323 29.098,59.742 29.507,60.159 Z M 30.189,60.852 C 30.522,61.19 30.855,61.528 31.186,61.871 C 31.053,62.011 30.918,62.15 30.783,62.289 C 29.887,63.207 28.991,64.118 28.142,65.076 C 27.584,64.552 27.027,64.028 26.47,63.503 C 26.771,63.131 27.11,62.76 27.448,62.426 C 28.157,61.722 28.904,61.052 29.684,60.425 C 29.701,60.413 29.716,60.4 29.731,60.387 C 29.885,60.543 30.035,60.698 30.189,60.852 Z M 32.075,62.803 C 32.267,63.007 32.467,63.208 32.66,63.411 C 32.438,63.63 32.221,63.849 32.008,64.068 C 31.221,64.87 30.45,65.693 29.705,66.533 C 29.358,66.209 29.008,65.885 28.66,65.562 C 28.562,65.471 28.465,65.378 28.367,65.287 C 29.266,64.288 30.235,63.35 31.219,62.435 C 31.308,62.351 31.397,62.266 31.486,62.183 C 31.685,62.389 31.88,62.595 32.075,62.803 Z M 34.367,65.237 C 34.411,65.284 34.454,65.33 34.498,65.377 C 33.459,66.321 32.499,67.367 31.852,68.541 C 31.777,68.471 31.701,68.403 31.627,68.335 C 31.088,67.841 30.55,67.338 30.021,66.834 C 29.974,66.788 29.928,66.744 29.881,66.7 C 30.484,66.03 31.113,65.381 31.756,64.748 C 32.129,64.378 32.521,64.032 32.911,63.679 C 33.393,64.199 33.882,64.716 34.367,65.237 Z M 35.418,66.392 C 35.765,66.793 36.141,67.167 36.468,67.585 C 36.478,67.597 36.489,67.611 36.501,67.626 C 36.477,67.65 36.454,67.674 36.431,67.699 C 36.116,68.024 35.799,68.364 35.501,68.703 C 34.977,69.299 34.47,69.905 33.974,70.524 C 33.971,70.521 33.967,70.518 33.964,70.515 C 33.723,70.3 33.485,70.068 33.249,69.844 C 32.855,69.47 32.457,69.098 32.059,68.73 C 32.192,68.474 32.339,68.226 32.513,67.994 C 33.162,67.125 33.928,66.354 34.767,65.665 C 34.987,65.904 35.207,66.147 35.418,66.392 Z M 37.059,67.055 C 37.053,67.06 37.048,67.064 37.043,67.069 C 37.005,67.023 36.968,66.975 36.93,66.928 C 36.972,66.971 37.016,67.013 37.059,67.055 Z M 37.256,67.376 C 37.248,67.366 37.242,67.356 37.235,67.345 C 37.223,67.332 37.213,67.318 37.205,67.303 C 37.21,67.298 37.214,67.294 37.219,67.29 C 37.217,67.316 37.227,67.345 37.256,67.376 Z" stroke="none" fill="#000000" stroke-width="0.5" fill-rule="evenodd" marker-start="none" marker-end="none" stroke-miterlimit="79.8403193612775"/></g></g></g><text x="0" y="90" fill="#000000" font-size="5px" font-weight="bold" font-family="'Helvetica Neue', Helvetica, Arial-Unicode, Arial, Sans-serif">Created by Denis Sazhin</text><text x="0" y="95" fill="#000000" font-size="5px" font-weight="bold" font-family="'Helvetica Neue', Helvetica, Arial-Unicode, Arial, Sans-serif">from the Noun Project</text></svg>