<svg xmlns:xlink="http://www.w3.org/1999/xlink" xmlns="http://www.w3.org/2000/svg" stroke-width="0.501" stroke-linejoin="bevel" fill-rule="evenodd" version="1.1" overflow="visible" viewBox="0 0 75 93.75" x="0px" y="0px"><g fill="none" stroke="black" font-family="Times New Roman" font-size="16" transform="scale(1 -1)"><g transform="translate(0 -75)"><g><path d="M 22.228,18.938 C 22.269,19.485 22.324,20.031 22.358,20.579 C 22.423,21.654 22.466,22.733 22.484,23.81 C 22.502,24.982 22.5,26.155 22.484,27.327 C 22.473,28.14 22.444,28.954 22.428,29.767 C 22.381,32.008 22.327,34.251 22.299,36.492 C 22.278,38.237 22.281,39.975 22.327,41.719 C 22.339,42.156 22.358,42.591 22.378,43.027 C 22.395,43.385 22.4,43.751 22.442,44.107 C 22.5,44.588 22.588,45.058 22.692,45.531 C 22.701,45.09 22.732,44.654 22.731,44.212 C 22.729,43.501 22.666,42.79 22.647,42.079 C 22.605,40.427 22.576,38.775 22.598,37.121 C 22.649,33.229 22.794,29.33 22.708,25.438 C 22.685,24.369 22.66,23.293 22.605,22.226 C 22.585,21.845 22.56,21.465 22.54,21.084 C 22.501,20.363 22.429,19.645 22.374,18.926 C 22.371,18.887 22.335,18.856 22.296,18.859 C 22.256,18.862 22.226,18.898 22.228,18.938 Z" stroke-width="0.5" stroke="none" fill="#000000" fill-rule="evenodd" marker-start="none" marker-end="none" stroke-miterlimit="79.8403193612775"/><path d="M 22.111,43.453 C 22.068,44.222 22.147,44.987 22.337,45.732 C 22.482,46.299 22.72,46.861 23.017,47.366 C 23.671,48.479 24.679,49.318 25.828,49.885 C 26.174,50.055 26.536,50.189 26.899,50.316 C 27.296,50.456 27.703,50.551 28.115,50.635 C 28.228,50.657 28.35,50.686 28.463,50.699 C 28.736,50.729 29.005,50.776 29.281,50.799 C 29.558,50.823 29.836,50.822 30.113,50.832 C 30.585,50.849 31.109,50.8 31.578,50.743 C 31.74,50.724 31.9,50.692 32.061,50.673 C 32.179,50.656 32.26,50.547 32.244,50.43 C 32.227,50.313 32.117,50.231 32,50.247 C 31.849,50.265 31.699,50.293 31.549,50.314 C 31.42,50.331 31.286,50.339 31.156,50.355 C 30.452,50.44 29.579,50.415 28.875,50.324 C 28.123,50.227 27.395,50.059 26.682,49.796 C 25.012,49.178 23.498,48.001 22.741,46.362 C 22.613,46.084 22.5,45.78 22.428,45.481 C 22.261,44.788 22.199,44.17 22.233,43.455 C 22.233,43.422 22.207,43.393 22.173,43.393 C 22.14,43.393 22.111,43.42 22.111,43.453 Z" stroke-width="0.5" stroke="none" fill="#000000" fill-rule="evenodd" marker-start="none" marker-end="none" stroke-miterlimit="79.8403193612775"/><path d="M 32.041,50.656 C 31.912,50.893 31.764,51.158 31.698,51.42 C 31.516,52.138 31.549,52.912 31.63,53.644 C 31.67,54.011 31.692,54.386 31.719,54.754 C 31.747,55.505 31.798,56.266 31.899,57.011 C 31.978,57.601 32.104,58.217 32.336,58.766 C 32.44,59.01 32.575,59.25 32.741,59.458 C 33.474,60.376 34.609,60.544 35.7,60.713 C 36.018,60.762 36.35,60.8 36.672,60.831 C 36.794,60.843 36.919,60.864 37.04,60.873 C 37.214,60.885 37.389,60.912 37.563,60.928 C 37.83,60.952 38.106,60.979 38.371,61.015 C 38.466,61.024 38.554,60.954 38.564,60.859 C 38.574,60.763 38.504,60.675 38.408,60.666 C 38.048,60.625 37.685,60.579 37.325,60.547 C 36.791,60.501 36.217,60.441 35.689,60.353 C 35.305,60.29 34.876,60.238 34.506,60.119 C 34.054,59.973 33.57,59.813 33.23,59.46 C 32.888,59.105 32.666,58.704 32.531,58.228 C 32.364,57.635 32.252,57.035 32.202,56.419 C 32.171,56.035 32.133,55.654 32.111,55.269 C 32.089,54.865 32.079,54.456 32.03,54.054 C 31.897,52.976 31.703,51.771 32.283,50.787 C 32.318,50.721 32.293,50.636 32.227,50.6 C 32.161,50.565 32.076,50.59 32.041,50.656 Z" stroke-width="0.5" stroke="none" fill="#000000" fill-rule="evenodd" marker-start="none" marker-end="none" stroke-miterlimit="79.8403193612775"/><path d="M 24.194,48.572 C 24.154,48.602 24.146,48.659 24.176,48.698 C 24.396,48.986 24.596,49.286 24.807,49.579 C 25.021,49.877 25.238,50.167 25.448,50.467 C 25.906,51.124 26.351,51.788 26.809,52.443 C 27.615,53.593 28.44,54.72 29.29,55.837 C 29.846,56.569 30.45,57.289 31.069,57.967 C 31.44,58.375 31.814,58.779 32.227,59.147 C 32.627,59.504 33.024,59.764 33.459,60.064 C 33.398,59.981 33.314,59.901 33.243,59.824 C 33.131,59.701 33.022,59.573 32.909,59.451 C 32.8,59.336 32.699,59.213 32.591,59.096 C 32.302,58.78 31.999,58.469 31.699,58.163 C 31.134,57.59 30.603,56.944 30.094,56.32 C 29.017,54.998 28.042,53.6 27.048,52.215 C 26.599,51.59 26.135,50.976 25.677,50.358 C 25.429,50.024 25.185,49.673 24.928,49.347 C 24.727,49.092 24.517,48.849 24.32,48.59 C 24.29,48.55 24.233,48.543 24.194,48.572 Z" stroke-width="0.5" stroke="none" fill="#000000" fill-rule="evenodd" marker-start="none" marker-end="none" stroke-miterlimit="79.8403193612775"/><path d="M 51.717,59.54 C 51.486,59.591 51.256,59.644 51.025,59.695 C 50.81,59.742 50.58,59.77 50.363,59.807 C 50.101,59.853 49.828,59.898 49.564,59.927 C 49.247,59.963 48.933,60.011 48.614,60.04 C 47.519,60.138 46.43,60.208 45.331,60.245 C 44.015,60.288 42.706,60.296 41.39,60.305 C 40.364,60.312 39.334,60.324 38.309,60.303 C 37.451,60.286 36.593,60.263 35.735,60.247 C 35.282,60.239 34.825,60.202 34.372,60.2 C 34.306,60.198 34.249,60.252 34.247,60.318 C 34.245,60.384 34.298,60.441 34.364,60.443 C 34.802,60.445 35.252,60.476 35.691,60.494 C 36.389,60.522 37.087,60.542 37.785,60.572 C 39.138,60.63 40.506,60.665 41.86,60.677 C 42.492,60.683 43.123,60.669 43.755,60.664 C 44.458,60.658 45.179,60.641 45.881,60.605 C 46.579,60.568 47.271,60.527 47.969,60.476 C 48.266,60.455 48.565,60.409 48.861,60.389 C 49.062,60.375 49.276,60.343 49.477,60.316 C 49.88,60.262 50.285,60.209 50.681,60.117 C 50.888,60.068 51.088,60.02 51.293,59.964 C 51.462,59.918 51.625,59.857 51.792,59.806 C 51.865,59.787 51.907,59.709 51.887,59.636 C 51.868,59.563 51.79,59.52 51.717,59.54 Z" stroke-width="0.5" stroke="none" fill="#000000" fill-rule="evenodd" marker-start="none" marker-end="none" stroke-miterlimit="79.8403193612775"/><path d="M 51.788,25.16 C 51.745,27.179 51.744,29.2 51.728,31.221 C 51.714,32.967 51.695,34.715 51.695,36.462 C 51.695,40.455 51.654,44.449 51.659,48.442 C 51.66,49.726 51.65,51.012 51.662,52.296 C 51.678,54.137 51.73,55.977 51.751,57.818 C 51.76,58.622 51.769,59.424 51.773,60.227 C 51.774,60.518 51.792,60.81 51.793,61.1 C 51.793,61.16 51.843,61.211 51.903,61.211 C 51.963,61.211 52.013,61.16 52.013,61.1 C 52.01,60.773 52.027,60.446 52.023,60.119 C 52.008,58.65 52.04,57.18 52.06,55.711 C 52.079,54.29 52.099,52.87 52.111,51.449 C 52.121,50.258 52.117,49.065 52.118,47.874 C 52.119,45.763 52.133,43.649 52.143,41.538 C 52.169,36.079 52.219,30.62 52.235,25.162 C 52.235,25.038 52.136,24.937 52.013,24.937 C 51.889,24.937 51.788,25.036 51.788,25.16 Z" stroke-width="0.5" stroke="none" fill="#000000" fill-rule="evenodd" marker-start="none" marker-end="none" stroke-miterlimit="79.8403193612775"/><path d="M 35.11,18.423 C 33.482,18.445 31.85,18.467 30.222,18.477 C 29.785,18.48 29.346,18.474 28.908,18.478 C 27.313,18.49 25.729,18.521 24.134,18.501 C 23.827,18.497 23.52,18.508 23.213,18.503 C 23.098,18.502 23.002,18.594 23.001,18.709 C 23,18.825 23.092,18.92 23.207,18.921 C 23.515,18.924 23.821,18.946 24.128,18.951 C 26.307,18.984 28.48,19.05 30.661,19.031 C 31.535,19.024 32.409,19.025 33.283,19.021 C 34.851,19.014 36.419,18.992 37.987,18.982 C 41.104,18.963 44.227,18.938 47.342,19.016 C 48.551,19.046 49.756,19.094 50.964,19.142 C 51.127,19.148 51.267,19.02 51.273,18.856 C 51.279,18.692 51.151,18.553 50.988,18.547 C 45.692,18.326 40.41,18.352 35.11,18.423 Z" stroke-width="0.5" stroke="none" fill="#000000" fill-rule="evenodd" marker-start="none" marker-end="none" stroke-miterlimit="79.8403193612775"/><path d="M 52.318,19.175 C 52.306,19.531 52.311,19.905 52.279,20.257 C 52.262,20.436 52.257,20.617 52.243,20.797 C 52.195,21.427 52.142,22.062 52.077,22.692 C 52.031,23.134 51.991,23.581 51.955,24.024 C 51.92,24.476 51.87,24.927 51.858,25.379 C 51.854,25.531 51.868,25.7 51.875,25.852 C 51.89,26.238 51.921,26.619 51.945,27.004 C 51.955,27.171 51.979,27.34 51.991,27.507 C 51.997,27.591 52.072,27.654 52.155,27.648 C 52.239,27.642 52.302,27.567 52.296,27.483 C 52.259,26.991 52.248,26.522 52.291,26.028 C 52.318,25.731 52.355,25.44 52.373,25.142 C 52.451,23.847 52.639,22.561 52.8,21.275 C 52.887,20.583 52.946,19.903 53.008,19.209 C 53.017,19.019 52.87,18.856 52.68,18.847 C 52.49,18.838 52.327,18.985 52.318,19.175 Z" stroke-width="0.5" stroke="none" fill="#000000" fill-rule="evenodd" marker-start="none" marker-end="none" stroke-miterlimit="79.8403193612775"/><path d="M 22.481,18.807 C 22.533,19.605 22.533,20.396 22.546,21.195 C 22.551,21.501 22.574,21.811 22.588,22.117 C 22.658,23.66 22.676,25.198 22.696,26.741 C 22.714,28.225 22.754,29.707 22.733,31.191 C 22.722,31.983 22.709,32.774 22.692,33.566 C 22.679,34.131 22.652,34.693 22.65,35.257 C 22.645,36.348 22.683,37.434 22.692,38.524 C 22.746,38.158 22.813,37.792 22.871,37.427 C 22.981,36.728 23.072,36.015 23.129,35.31 C 23.189,34.57 23.212,33.827 23.227,33.084 C 23.242,32.341 23.259,31.596 23.258,30.853 C 23.255,29.191 23.257,27.521 23.16,25.861 C 23.073,24.382 22.979,22.903 22.892,21.423 C 22.87,21.056 22.812,20.69 22.774,20.324 C 22.722,19.814 22.671,19.308 22.64,18.797 C 22.638,18.754 22.599,18.72 22.556,18.722 C 22.512,18.724 22.479,18.763 22.481,18.807 Z" stroke-width="0.5" stroke="none" fill="#000000" fill-rule="evenodd" marker-start="none" marker-end="none" stroke-miterlimit="79.8403193612775"/><path d="M 22.63,43.959 C 22.129,44.929 22.108,46.032 22.636,46.996 C 22.771,47.24 22.915,47.494 23.097,47.706 C 23.252,47.888 23.393,48.087 23.569,48.253 C 23.784,48.455 23.982,48.66 24.217,48.842 C 25.518,49.85 26.959,50.454 28.573,50.747 C 29.022,50.828 29.476,50.866 29.931,50.861 C 30.026,50.86 30.119,50.864 30.213,50.856 C 30.437,50.835 30.643,50.812 30.865,50.78 L 31.508,50.597 L 31.509,50.704 C 31.485,51.625 31.407,52.557 31.407,53.477 C 31.407,53.955 31.392,54.44 31.414,54.917 C 31.439,55.462 31.468,56 31.539,56.542 C 31.578,56.847 31.635,57.144 31.696,57.446 C 31.817,58.055 32.026,58.716 32.328,59.261 C 32.365,59.327 32.413,59.392 32.451,59.458 C 32.492,59.527 32.537,59.605 32.586,59.669 C 32.693,59.811 32.802,59.939 32.924,60.069 C 32.999,60.151 33.089,60.219 33.174,60.291 C 33.281,60.382 33.401,60.469 33.526,60.532 C 33.751,60.645 33.974,60.713 34.22,60.771 C 34.608,60.863 35.038,60.847 35.432,60.811 L 35.519,60.798 L 35.541,60.899 C 35.676,61.142 35.987,61.164 36.322,61.146 C 36.418,61.142 36.493,61.059 36.489,60.962 C 36.485,60.866 36.403,60.791 36.306,60.795 C 36.225,60.8 36.012,60.809 35.941,60.774 C 35.922,60.764 35.876,60.743 35.867,60.727 L 35.857,60.706 C 35.866,60.682 35.849,60.513 35.842,60.499 C 35.82,60.453 35.783,60.421 35.736,60.401 C 35.669,60.371 35.295,60.402 35.181,60.395 C 34.992,60.381 34.768,60.349 34.585,60.295 C 34.539,60.281 34.488,60.257 34.441,60.245 C 34.241,60.195 34.015,60.035 33.847,59.918 C 33.221,59.478 32.947,58.969 32.672,58.248 C 32.451,57.671 32.326,56.905 32.275,56.29 C 32.23,55.75 32.202,55.235 32.186,54.694 C 32.169,54.077 32.203,53.446 32.227,52.829 C 32.263,51.872 32.385,50.884 32.331,49.933 C 32.327,49.862 32.315,49.793 32.295,49.723 C 32.243,49.547 32.022,49.439 31.847,49.461 C 31.725,49.477 31.608,49.564 31.508,49.633 C 31.466,49.664 31.444,49.65 31.403,49.664 C 31.353,49.681 31.295,49.717 31.246,49.741 C 31.138,49.792 30.943,49.844 30.823,49.871 C 30.016,50.05 29.165,49.975 28.362,49.801 C 27.171,49.543 26.08,49.079 25.076,48.387 C 24.857,48.236 24.651,48.062 24.45,47.889 C 24.272,47.737 24.104,47.547 23.95,47.371 C 23.443,46.788 23.207,46.203 22.957,45.491 C 22.871,45.246 22.779,44.821 22.769,44.563 C 22.761,44.364 22.751,44.19 22.754,43.988 C 22.762,43.955 22.74,43.919 22.706,43.911 C 22.673,43.904 22.637,43.925 22.63,43.959 Z" stroke-width="0.5" stroke="none" fill="#000000" fill-rule="evenodd" marker-start="none" marker-end="none" stroke-miterlimit="79.8403193612775"/><path d="M 22.837,18.797 C 22.727,19.008 22.672,19.436 22.629,19.677 C 22.527,20.24 22.488,20.833 22.436,21.402 C 22.358,22.284 22.318,23.17 22.273,24.054 C 22.238,24.734 22.213,25.414 22.192,26.095 C 22.181,26.469 22.162,26.843 22.158,27.217 C 22.146,28.122 22.121,29.03 22.105,29.935 C 22.08,31.395 22.095,32.856 22.091,34.315 C 22.09,34.876 22.091,35.446 22.107,36.006 C 22.118,36.379 22.111,36.753 22.124,37.126 C 22.176,38.683 22.171,40.239 22.289,41.793 C 22.378,42.979 22.495,44.16 22.631,45.341 C 22.673,45.712 22.737,46.076 22.788,46.443 C 22.841,46.822 22.939,47.254 23.11,47.595 C 23.175,47.722 23.332,47.771 23.458,47.706 C 23.585,47.641 23.634,47.483 23.569,47.357 C 23.381,46.948 23.331,46.522 23.269,46.079 C 23.152,45.247 23.132,44.418 23.079,43.582 C 23.028,42.785 23.056,41.977 23.023,41.179 C 22.957,39.597 22.921,38.004 22.907,36.42 C 22.891,34.701 22.869,32.975 22.893,31.255 C 22.901,30.707 22.902,30.159 22.909,29.611 C 22.916,29.089 22.933,28.567 22.939,28.045 C 22.945,27.515 22.959,26.98 22.978,26.451 C 22.998,25.928 23.004,25.406 23.032,24.884 C 23.054,24.463 23.066,24.039 23.087,23.617 C 23.125,22.835 23.18,22.055 23.245,21.275 C 23.267,21.006 23.292,20.734 23.323,20.467 C 23.339,20.337 23.365,20.199 23.376,20.071 C 23.384,19.973 23.405,19.872 23.42,19.774 C 23.457,19.521 23.502,19.304 23.584,19.067 C 23.658,18.861 23.551,18.632 23.345,18.558 C 23.139,18.484 22.91,18.591 22.837,18.797 Z" stroke-width="0.5" stroke="none" fill="#000000" fill-rule="evenodd" marker-start="none" marker-end="none" stroke-miterlimit="79.8403193612775"/><path d="M 52.028,19.458 C 52.026,19.704 52.042,19.955 52.048,20.2 C 52.065,20.894 52.063,21.589 52.061,22.283 C 52.059,23.032 52.035,23.78 52.023,24.529 C 52.013,25.128 52.037,25.732 52.029,26.332 C 52.018,27.176 52.029,28.021 52.025,28.864 C 52.018,30.542 52.015,32.22 52.003,33.898 C 51.98,36.995 51.971,40.091 51.959,43.187 C 51.952,45.047 51.96,46.928 51.995,48.777 C 51.995,49.617 52.003,50.457 52.003,51.298 C 52.003,51.721 51.992,52.148 51.999,52.569 C 52.008,53.089 52.003,53.625 51.994,54.145 C 51.985,54.705 51.976,55.278 51.984,55.837 C 51.987,56.056 51.989,56.289 51.981,56.507 C 51.965,56.978 51.975,57.458 51.968,57.93 C 51.963,58.247 51.946,58.573 51.947,58.889 C 51.945,59.099 52.114,59.273 52.324,59.275 C 52.534,59.277 52.708,59.108 52.71,58.899 C 52.702,58.724 52.715,58.552 52.714,58.377 C 52.711,57.861 52.72,57.342 52.726,56.826 C 52.744,55.381 52.741,53.934 52.743,52.489 C 52.744,52.004 52.757,51.509 52.746,51.026 C 52.741,50.811 52.739,50.584 52.744,50.369 C 52.75,50.109 52.752,49.819 52.742,49.559 C 52.729,49.23 52.739,48.895 52.732,48.565 C 52.706,47.423 52.707,46.278 52.702,45.135 C 52.689,41.688 52.71,38.241 52.73,34.792 C 52.742,32.785 52.752,30.776 52.745,28.769 C 52.741,27.756 52.738,26.746 52.728,25.735 C 52.724,25.339 52.729,24.94 52.717,24.545 C 52.667,22.845 52.558,21.144 52.519,19.444 C 52.516,19.309 52.402,19.203 52.267,19.206 C 52.132,19.209 52.025,19.323 52.028,19.458 Z" stroke-width="0.5" stroke="none" fill="#000000" fill-rule="evenodd" marker-start="none" marker-end="none" stroke-miterlimit="79.8403193612775"/><path d="M 31.139,17.582 C 30.334,17.598 29.526,17.598 28.722,17.624 C 27.303,17.669 25.888,17.694 24.469,17.772 C 23.999,17.798 23.526,17.817 23.059,17.859 C 22.878,17.87 22.739,18.028 22.75,18.21 C 22.761,18.391 22.919,18.53 23.101,18.519 C 24.28,18.42 25.491,18.397 26.674,18.385 C 28.676,18.364 30.676,18.422 32.675,18.492 C 33.566,18.524 34.466,18.538 35.358,18.551 C 36.321,18.565 37.286,18.598 38.248,18.622 C 40.376,18.677 42.503,18.733 44.63,18.78 C 45.957,18.81 47.287,18.807 48.613,18.835 C 49.452,18.853 50.294,18.83 51.132,18.825 C 51.343,18.823 51.56,18.813 51.777,18.805 L 52.054,18.806 L 52.097,18.85 C 52.225,19.025 52.441,19.112 52.656,19.062 C 52.942,18.994 53.12,18.705 53.052,18.419 C 53.034,18.347 53.004,18.279 52.964,18.217 L 52.903,18.142 L 52.876,18.06 C 52.812,17.92 52.688,17.807 52.522,17.766 C 52.405,17.736 52.139,17.768 52.006,17.773 C 51.616,17.788 51.226,17.796 50.837,17.809 C 50.214,17.832 49.585,17.83 48.961,17.835 C 46.945,17.851 44.931,17.826 42.915,17.778 C 41.134,17.735 39.352,17.691 37.571,17.656 C 36.073,17.626 34.576,17.584 33.078,17.566 C 32.435,17.558 31.782,17.569 31.139,17.582 Z" stroke-width="0.5" stroke="none" fill="#000000" fill-rule="evenodd" marker-start="none" marker-end="none" stroke-miterlimit="79.8403193612775"/><path d="M 41.09,59.963 C 40.243,59.974 39.391,59.962 38.547,60.029 C 37.584,60.106 36.624,60.152 35.667,60.287 C 35.348,60.333 35.024,60.373 34.708,60.44 C 34.559,60.467 34.459,60.611 34.486,60.761 C 34.512,60.911 34.657,61.011 34.807,60.984 C 35.419,60.847 36.101,60.805 36.727,60.767 C 37.511,60.72 38.321,60.716 39.108,60.733 C 39.434,60.74 39.758,60.727 40.084,60.731 C 41.051,60.743 42.026,60.748 42.993,60.78 C 44.677,60.835 46.362,60.908 48.047,60.964 C 48.439,60.977 48.831,61.003 49.223,61.013 C 49.777,61.027 50.331,61.042 50.885,61.056 C 51.052,61.06 51.225,61.066 51.391,61.064 C 51.501,61.063 51.645,61.056 51.752,61.072 C 52.022,61.073 52.243,60.854 52.244,60.584 C 52.245,60.314 52.026,60.093 51.756,60.092 C 51.402,60.111 51.027,60.093 50.671,60.089 C 50.069,60.082 49.46,60.062 48.859,60.064 C 48.423,60.066 47.982,60.053 47.546,60.039 C 47.039,60.023 46.531,60.021 46.024,60.004 C 45.262,59.98 44.496,59.988 43.733,59.982 C 42.851,59.975 41.973,59.952 41.09,59.963 Z" stroke-width="0.5" stroke="none" fill="#000000" fill-rule="evenodd" marker-start="none" marker-end="none" stroke-miterlimit="79.8403193612775"/><path d="M 23.395,47.207 C 23.318,47.248 23.288,47.345 23.328,47.422 C 23.396,47.543 23.454,47.671 23.522,47.793 C 23.795,48.292 24.077,48.799 24.387,49.277 C 24.652,49.686 24.924,50.097 25.184,50.508 C 25.45,50.928 25.753,51.347 26.04,51.755 C 26.539,52.467 27.045,53.17 27.556,53.872 C 28.081,54.593 28.629,55.294 29.197,55.98 C 29.497,56.342 29.785,56.716 30.086,57.076 C 30.961,58.122 31.796,59.214 32.611,60.307 C 32.745,60.489 33.004,60.528 33.187,60.394 C 33.369,60.26 33.407,60 33.273,59.818 C 32.746,59.083 32.167,58.347 31.595,57.647 C 30.661,56.504 29.737,55.353 28.795,54.215 C 28.424,53.767 28.021,53.327 27.637,52.886 C 26.983,52.133 26.362,51.356 25.751,50.568 C 24.958,49.546 24.197,48.427 23.61,47.274 C 23.57,47.197 23.472,47.167 23.395,47.207 Z" stroke-width="0.5" stroke="none" fill="#000000" fill-rule="evenodd" marker-start="none" marker-end="none" stroke-miterlimit="79.8403193612775"/><path d="M 23.384,47.672 C 23.277,47.791 23.288,47.975 23.406,48.081 C 23.558,48.228 23.724,48.368 23.878,48.514 C 24.116,48.738 24.348,48.988 24.568,49.229 C 25.422,50.167 26.194,51.199 26.961,52.207 C 27.728,53.215 28.48,54.236 29.247,55.245 C 29.708,55.852 30.193,56.419 30.696,56.991 C 31.453,57.849 32.227,58.655 33.077,59.42 C 33.152,59.488 33.269,59.482 33.337,59.407 C 33.405,59.332 33.399,59.216 33.324,59.148 C 32.69,58.589 32.12,57.97 31.573,57.328 C 31.364,57.082 31.17,56.824 30.965,56.575 C 30.667,56.21 30.392,55.82 30.104,55.446 C 28.977,53.986 27.898,52.489 26.77,51.032 C 25.857,49.854 24.91,48.641 23.793,47.65 C 23.674,47.543 23.49,47.554 23.384,47.672 Z" stroke-width="0.5" stroke="none" fill="#000000" fill-rule="evenodd" marker-start="none" marker-end="none" stroke-miterlimit="79.8403193612775"/><path d="M 51.517,58.23 C 51.449,58.74 51.611,59.346 51.675,59.859 C 51.701,60.062 51.682,60.236 51.677,60.437 C 51.671,60.55 51.757,60.651 51.871,60.658 C 51.984,60.665 52.084,60.578 52.091,60.465 C 52.096,60.356 52.111,60.247 52.114,60.139 C 52.12,59.938 52.102,59.75 52.095,59.552 C 52.091,59.434 52.058,59.284 52.04,59.164 C 51.998,58.885 51.95,58.541 51.992,58.262 C 52,58.131 51.901,58.017 51.77,58.009 C 51.639,58.001 51.525,58.099 51.517,58.23 Z" stroke-width="0.5" stroke="none" fill="#000000" fill-rule="evenodd" marker-start="none" marker-end="none" stroke-miterlimit="79.8403193612775"/><path d="M 22.671,46.293 L 22.712,46.324 C 22.948,46.006 23.205,45.655 23.507,45.4 C 23.619,45.304 23.745,45.239 23.873,45.169 L 23.819,45.127 C 23.324,45.378 22.995,45.855 22.671,46.293 Z" stroke-width="0.5" stroke="none" fill="#000000" fill-rule="evenodd" marker-start="none" marker-end="none" stroke-miterlimit="79.8403193612775"/><path d="M 25.974,45.039 C 25.848,45.157 25.725,45.281 25.593,45.392 C 25.253,45.677 24.898,45.941 24.545,46.208 C 24,46.619 23.428,46.979 22.908,47.424 C 22.879,47.447 22.875,47.49 22.898,47.519 C 22.92,47.547 22.964,47.551 22.992,47.528 C 23.232,47.331 23.479,47.143 23.735,46.967 C 24.003,46.781 24.283,46.612 24.553,46.43 C 24.685,46.34 24.819,46.256 24.953,46.168 C 25.071,46.09 25.184,46.002 25.303,45.926 C 25.608,45.733 25.866,45.459 26.155,45.244 C 26.211,45.195 26.216,45.107 26.167,45.051 C 26.117,44.995 26.03,44.99 25.974,45.039 Z" stroke-width="0.5" stroke="none" fill="#000000" fill-rule="evenodd" marker-start="none" marker-end="none" stroke-miterlimit="79.8403193612775"/><path d="M 28.06,44.994 C 27.063,45.522 26.409,46.295 25.634,47.1 C 25.351,47.393 25.058,47.699 24.749,47.964 C 24.682,48.02 24.613,48.083 24.546,48.136 C 24.474,48.194 24.389,48.25 24.321,48.312 C 24.281,48.342 24.273,48.402 24.304,48.441 C 24.335,48.48 24.394,48.488 24.433,48.458 C 24.508,48.391 24.596,48.335 24.674,48.27 C 24.821,48.148 24.969,48.026 25.112,47.898 C 25.536,47.52 25.944,47.119 26.362,46.733 C 26.602,46.511 26.847,46.301 27.092,46.087 C 27.415,45.803 27.827,45.468 28.22,45.289 C 28.3,45.246 28.331,45.142 28.288,45.062 C 28.244,44.981 28.141,44.95 28.06,44.994 Z" stroke-width="0.5" stroke="none" fill="#000000" fill-rule="evenodd" marker-start="none" marker-end="none" stroke-miterlimit="79.8403193612775"/><path d="M 29.463,45.428 C 28.487,46.443 27.299,47.241 26.302,48.245 C 26.044,48.504 25.818,48.815 25.608,49.115 C 25.581,49.153 25.589,49.206 25.627,49.232 C 25.664,49.259 25.717,49.251 25.744,49.214 C 26.461,48.194 27.579,47.373 28.562,46.63 C 28.966,46.324 29.312,45.983 29.672,45.633 C 29.728,45.576 29.727,45.482 29.67,45.426 C 29.613,45.37 29.52,45.371 29.463,45.428 Z" stroke-width="0.5" stroke="none" fill="#000000" fill-rule="evenodd" marker-start="none" marker-end="none" stroke-miterlimit="79.8403193612775"/><path d="M 31.84,45.537 C 31.616,45.633 31.357,45.786 31.154,45.922 C 30.66,46.252 30.235,46.58 29.782,46.966 C 29.57,47.146 29.371,47.345 29.168,47.534 C 28.764,47.911 28.373,48.328 27.956,48.685 C 27.806,48.815 27.657,48.956 27.509,49.089 C 27.405,49.184 27.284,49.269 27.183,49.365 C 27.152,49.391 27.148,49.438 27.174,49.469 C 27.2,49.499 27.247,49.503 27.277,49.478 C 27.363,49.396 27.467,49.321 27.557,49.243 C 27.763,49.068 27.968,48.889 28.171,48.711 C 28.652,48.288 29.128,47.857 29.622,47.447 C 30.363,46.831 31.082,46.19 31.965,45.783 C 32.033,45.749 32.059,45.666 32.026,45.598 C 31.992,45.53 31.908,45.503 31.84,45.537 Z" stroke-width="0.5" stroke="none" fill="#000000" fill-rule="evenodd" marker-start="none" marker-end="none" stroke-miterlimit="79.8403193612775"/><path d="M 33.729,45.756 C 33.456,45.952 33.194,46.162 32.924,46.361 C 32.176,46.908 31.433,47.528 30.751,48.156 C 29.881,48.957 29.07,49.745 28.337,50.671 C 28.309,50.705 28.315,50.756 28.349,50.784 C 28.382,50.811 28.433,50.805 28.461,50.772 C 29.597,49.361 30.967,48.271 32.438,47.219 C 32.952,46.85 33.46,46.459 33.969,46.082 C 34.059,46.016 34.078,45.888 34.012,45.799 C 33.946,45.709 33.818,45.69 33.729,45.756 Z" stroke-width="0.5" stroke="none" fill="#000000" fill-rule="evenodd" marker-start="none" marker-end="none" stroke-miterlimit="79.8403193612775"/><path d="M 34.494,47.321 C 34.38,47.411 34.279,47.53 34.166,47.623 C 33.882,47.857 33.616,48.118 33.325,48.348 C 32.488,49.01 31.668,49.679 30.89,50.407 C 30.589,50.69 30.306,51.011 30.034,51.323 C 30.008,51.351 30.011,51.398 30.04,51.423 C 30.068,51.449 30.115,51.446 30.14,51.417 C 30.608,50.883 31.088,50.411 31.64,49.965 C 32.651,49.148 33.758,48.46 34.762,47.631 C 34.846,47.557 34.856,47.427 34.782,47.342 C 34.708,47.257 34.578,47.248 34.494,47.321 Z" stroke-width="0.5" stroke="none" fill="#000000" fill-rule="evenodd" marker-start="none" marker-end="none" stroke-miterlimit="79.8403193612775"/><path d="M 34.545,49.311 C 34.255,49.526 33.955,49.757 33.677,49.985 C 33.25,50.334 32.804,50.661 32.388,51.025 C 32.186,51.201 31.999,51.401 31.81,51.591 C 31.649,51.752 31.48,51.927 31.331,52.099 C 31.304,52.128 31.305,52.174 31.334,52.201 C 31.362,52.227 31.409,52.226 31.435,52.198 C 31.786,51.805 32.179,51.503 32.579,51.165 C 33.259,50.588 33.983,50.047 34.71,49.532 C 34.77,49.487 34.783,49.399 34.738,49.339 C 34.693,49.279 34.605,49.266 34.545,49.311 Z" stroke-width="0.5" stroke="none" fill="#000000" fill-rule="evenodd" marker-start="none" marker-end="none" stroke-miterlimit="79.8403193612775"/><path d="M 34.786,50.695 C 34.388,50.934 34.013,51.276 33.655,51.573 C 33.436,51.754 33.224,51.958 33.015,52.153 C 32.824,52.33 32.625,52.508 32.444,52.696 C 32.19,52.958 31.945,53.23 31.692,53.493 C 31.647,53.537 31.647,53.612 31.692,53.656 C 31.736,53.701 31.811,53.701 31.855,53.656 C 32.128,53.363 32.447,53.117 32.731,52.839 C 33.111,52.469 33.518,52.088 33.934,51.759 C 34.048,51.67 34.161,51.569 34.28,51.486 C 34.403,51.4 34.523,51.306 34.647,51.22 C 34.759,51.144 34.876,51.079 34.987,51.004 C 35.072,50.949 35.097,50.834 35.041,50.749 C 34.986,50.664 34.871,50.64 34.786,50.695 Z" stroke-width="0.5" stroke="none" fill="#000000" fill-rule="evenodd" marker-start="none" marker-end="none" stroke-miterlimit="79.8403193612775"/><path d="M 34.648,52.532 C 33.871,53.18 33.224,53.898 32.527,54.628 C 32.258,54.909 31.978,55.178 31.709,55.457 C 31.674,55.492 31.674,55.551 31.708,55.586 C 31.743,55.622 31.802,55.622 31.838,55.587 C 31.956,55.462 32.089,55.347 32.21,55.223 C 32.391,55.039 32.576,54.859 32.759,54.677 C 33.428,54.013 34.099,53.353 34.867,52.802 C 34.941,52.742 34.953,52.632 34.893,52.558 C 34.833,52.484 34.722,52.472 34.648,52.532 Z" stroke-width="0.5" stroke="none" fill="#000000" fill-rule="evenodd" marker-start="none" marker-end="none" stroke-miterlimit="79.8403193612775"/><path d="M 33.487,54.768 C 33.336,54.91 33.191,55.071 33.047,55.221 C 32.782,55.496 32.515,55.773 32.239,56.038 C 32.072,56.197 31.885,56.324 31.704,56.465 C 31.653,56.503 31.641,56.578 31.679,56.629 C 31.716,56.68 31.791,56.692 31.842,56.654 C 32.022,56.524 32.203,56.393 32.376,56.254 C 32.514,56.143 32.646,56.016 32.778,55.898 C 33.096,55.614 33.373,55.264 33.692,54.975 C 33.748,54.919 33.749,54.825 33.693,54.769 C 33.637,54.713 33.543,54.712 33.487,54.768 Z" stroke-width="0.5" stroke="none" fill="#000000" fill-rule="evenodd" marker-start="none" marker-end="none" stroke-miterlimit="79.8403193612775"/><path d="M 32.873,57.504 C 32.698,57.628 32.524,57.763 32.353,57.893 C 32.303,57.931 32.292,58.005 32.329,58.055 C 32.367,58.105 32.441,58.116 32.491,58.079 C 32.662,57.949 32.836,57.813 33.011,57.689 C 33.062,57.652 33.072,57.578 33.035,57.528 C 32.997,57.477 32.924,57.467 32.873,57.504 Z" stroke-width="0.5" stroke="none" fill="#000000" fill-rule="evenodd" marker-start="none" marker-end="none" stroke-miterlimit="79.8403193612775"/><path d="M 27.325,50.698 C 26.999,50.805 26.842,50.964 26.563,51.151 C 26.485,51.203 26.194,51.407 26.097,51.412 C 26.053,51.414 25.97,51.435 25.918,51.442 C 25.847,51.451 25.765,51.416 25.697,51.408 C 25.647,51.398 25.597,51.428 25.586,51.477 C 25.575,51.527 25.606,51.577 25.655,51.588 C 25.698,51.596 25.738,51.61 25.78,51.618 C 25.896,51.644 26.019,51.617 26.131,51.604 C 26.222,51.593 26.38,51.511 26.463,51.47 C 26.789,51.311 27.039,51.069 27.398,51.001 C 27.481,50.982 27.533,50.897 27.513,50.813 C 27.493,50.729 27.408,50.678 27.325,50.698 Z" stroke-width="0.5" stroke="none" fill="#000000" fill-rule="evenodd" marker-start="none" marker-end="none" stroke-miterlimit="79.8403193612775"/><path d="M 27.585,51.897 C 27.389,51.982 27.151,52.193 26.977,52.34 C 26.914,52.392 26.684,52.556 26.65,52.603 C 26.615,52.637 26.615,52.697 26.65,52.731 C 26.684,52.766 26.743,52.766 26.778,52.731 L 26.997,52.564 C 27.177,52.446 27.476,52.186 27.658,52.138 C 27.724,52.118 27.761,52.047 27.742,51.981 C 27.722,51.915 27.651,51.878 27.585,51.897 Z" stroke-width="0.5" stroke="none" fill="#000000" fill-rule="evenodd" marker-start="none" marker-end="none" stroke-miterlimit="79.8403193612775"/><path d="M 28.437,52.573 C 28.203,52.813 27.97,53.088 27.708,53.295 C 27.619,53.365 27.526,53.419 27.434,53.483 C 27.384,53.515 27.368,53.582 27.4,53.632 C 27.431,53.682 27.498,53.698 27.548,53.666 C 27.64,53.592 27.763,53.54 27.855,53.458 C 27.945,53.378 28.042,53.306 28.13,53.224 C 28.294,53.071 28.454,52.906 28.623,52.761 C 28.674,52.71 28.674,52.626 28.624,52.574 C 28.573,52.523 28.489,52.523 28.437,52.573 Z" stroke-width="0.5" stroke="none" fill="#000000" fill-rule="evenodd" marker-start="none" marker-end="none" stroke-miterlimit="79.8403193612775"/><path d="M 29.225,53.492 C 28.875,53.831 28.551,54.202 28.204,54.546 C 28.168,54.582 28.168,54.643 28.204,54.678 C 28.239,54.714 28.3,54.714 28.336,54.678 C 28.678,54.328 29.047,54.005 29.39,53.657 C 29.436,53.612 29.436,53.537 29.39,53.492 C 29.345,53.447 29.27,53.447 29.225,53.492 Z" stroke-width="0.5" stroke="none" fill="#000000" fill-rule="evenodd" marker-start="none" marker-end="none" stroke-miterlimit="79.8403193612775"/><path d="M 29.997,54.131 C 29.911,54.216 29.857,54.274 29.752,54.341 C 29.604,54.436 29.426,54.52 29.302,54.647 C 29.123,54.831 29.078,55.002 29.057,55.253 C 29.052,55.319 29.103,55.379 29.169,55.384 C 29.235,55.389 29.295,55.339 29.3,55.273 C 29.345,54.847 29.47,54.785 29.856,54.562 C 29.901,54.537 30.005,54.47 30.044,54.437 C 30.088,54.4 30.13,54.351 30.177,54.318 C 30.228,54.268 30.23,54.186 30.181,54.134 C 30.132,54.083 30.049,54.081 29.997,54.131 Z" stroke-width="0.5" stroke="none" fill="#000000" fill-rule="evenodd" marker-start="none" marker-end="none" stroke-miterlimit="79.8403193612775"/><path d="M 30.747,55.017 C 30.605,55.149 30.469,55.308 30.335,55.45 C 30.007,55.797 29.727,56.095 29.458,56.487 C 29.419,56.547 29.435,56.63 29.495,56.669 C 29.555,56.709 29.638,56.693 29.677,56.633 C 29.891,56.264 30.294,55.915 30.6,55.624 C 30.729,55.5 30.856,55.367 30.985,55.247 C 31.048,55.182 31.046,55.076 30.981,55.013 C 30.916,54.95 30.81,54.951 30.747,55.017 Z" stroke-width="0.5" stroke="none" fill="#000000" fill-rule="evenodd" marker-start="none" marker-end="none" stroke-miterlimit="79.8403193612775"/><path d="M 31.056,56.731 C 30.837,56.901 30.619,57.075 30.406,57.251 C 30.359,57.288 30.351,57.359 30.389,57.406 C 30.426,57.454 30.497,57.462 30.544,57.424 C 30.757,57.249 30.975,57.074 31.194,56.905 C 31.241,56.867 31.249,56.796 31.212,56.749 C 31.174,56.702 31.103,56.694 31.056,56.731 Z" stroke-width="0.5" stroke="none" fill="#000000" fill-rule="evenodd" marker-start="none" marker-end="none" stroke-miterlimit="79.8403193612775"/><path d="M 45.102,19.779 C 44.397,20.186 43.687,20.592 42.991,21.013 C 42.349,21.402 41.697,21.784 41.086,22.22 C 40.432,22.686 39.733,23.154 39.143,23.702 L 39.138,23.758 L 39.195,23.763 C 39.353,23.615 39.531,23.478 39.7,23.342 C 40.403,22.778 41.16,22.294 41.925,21.82 C 42.557,21.428 43.198,21.06 43.837,20.682 C 44.28,20.421 44.725,20.153 45.173,19.901 C 45.206,19.882 45.217,19.838 45.198,19.804 C 45.18,19.771 45.135,19.76 45.102,19.779 Z" stroke-width="0.5" stroke="none" fill="#000000" fill-rule="evenodd" marker-start="none" marker-end="none" stroke-miterlimit="79.8403193612775"/><path d="M 46.886,20.503 C 46.213,20.864 45.535,21.332 44.924,21.783 C 44.206,22.313 43.507,22.869 42.822,23.442 C 42.061,24.079 41.326,24.747 40.572,25.392 L 40.569,25.444 L 40.622,25.447 C 41.054,25.054 41.51,24.683 41.955,24.304 C 43.179,23.264 44.501,22.289 45.866,21.441 C 46.252,21.202 46.625,20.957 47.022,20.735 C 47.086,20.698 47.107,20.615 47.07,20.551 C 47.033,20.487 46.95,20.465 46.886,20.503 Z" stroke-width="0.5" stroke="none" fill="#000000" fill-rule="evenodd" marker-start="none" marker-end="none" stroke-miterlimit="79.8403193612775"/><path d="M 48.047,22.182 C 47.361,22.605 46.729,23.05 46.1,23.553 C 45.32,24.178 44.583,24.889 43.875,25.595 C 43.537,25.933 43.188,26.274 42.864,26.625 C 42.694,26.808 42.508,26.981 42.34,27.166 C 42.303,27.205 42.304,27.269 42.342,27.306 C 42.381,27.344 42.445,27.343 42.482,27.304 C 42.809,26.942 43.174,26.595 43.516,26.246 C 44.942,24.792 46.445,23.468 48.196,22.427 C 48.264,22.386 48.284,22.297 48.244,22.23 C 48.203,22.163 48.114,22.142 48.047,22.182 Z" stroke-width="0.5" stroke="none" fill="#000000" fill-rule="evenodd" marker-start="none" marker-end="none" stroke-miterlimit="79.8403193612775"/><path d="M 48.585,25.107 C 48.103,25.439 47.642,25.824 47.184,26.188 C 46.756,26.53 46.327,26.872 45.9,27.216 L 45.93,27.254 C 46.312,26.945 46.698,26.641 47.083,26.334 C 47.882,25.696 48.686,25.063 49.549,24.511 C 49.214,24.697 48.9,24.891 48.585,25.107 Z" stroke-width="0.5" stroke="none" fill="#000000" fill-rule="evenodd" marker-start="none" marker-end="none" stroke-miterlimit="79.8403193612775"/><path d="M 49.549,26.42 C 49.235,26.667 48.924,26.917 48.607,27.16 C 48.464,27.271 48.284,27.386 48.153,27.505 C 47.902,27.733 47.612,27.941 47.343,28.148 C 46.939,28.457 46.492,28.748 46.041,28.984 C 45.865,29.077 45.677,29.155 45.495,29.236 C 45.455,29.253 45.435,29.302 45.452,29.342 C 45.469,29.383 45.518,29.402 45.558,29.386 C 45.734,29.305 45.915,29.235 46.09,29.152 C 46.591,28.914 47.1,28.635 47.57,28.342 C 47.844,28.171 48.142,28.005 48.403,27.817 C 48.878,27.474 49.337,27.105 49.809,26.757 C 49.901,26.686 49.918,26.551 49.847,26.459 C 49.776,26.366 49.641,26.349 49.549,26.42 Z" stroke-width="0.5" stroke="none" fill="#000000" fill-rule="evenodd" marker-start="none" marker-end="none" stroke-miterlimit="79.8403193612775"/><path d="M 49.714,28.58 C 49.59,28.732 49.474,28.85 49.328,28.981 C 49.237,29.061 49.125,29.143 49.026,29.217 C 48.803,29.385 48.567,29.574 48.377,29.778 C 48.228,29.938 48.121,30.098 48.017,30.291 C 47.986,30.348 48.006,30.422 48.063,30.454 C 48.121,30.485 48.195,30.465 48.226,30.408 C 48.46,29.974 48.794,29.674 49.197,29.39 C 49.282,29.329 49.36,29.256 49.444,29.194 C 49.615,29.07 49.756,28.895 49.901,28.746 C 49.947,28.695 49.942,28.615 49.891,28.57 C 49.839,28.524 49.76,28.529 49.714,28.58 Z" stroke-width="0.5" stroke="none" fill="#000000" fill-rule="evenodd" marker-start="none" marker-end="none" stroke-miterlimit="79.8403193612775"/><path d="M 50.281,30.517 C 49.811,30.739 49.229,30.997 48.946,31.455 C 48.912,31.501 48.922,31.568 48.967,31.601 C 49.013,31.635 49.08,31.625 49.113,31.579 C 49.446,31.12 49.872,30.942 50.374,30.704 C 50.425,30.68 50.445,30.616 50.421,30.564 C 50.396,30.513 50.332,30.492 50.281,30.517 Z" stroke-width="0.5" stroke="none" fill="#000000" fill-rule="evenodd" marker-start="none" marker-end="none" stroke-miterlimit="79.8403193612775"/><path d="M 50.639,31.947 C 50.292,32.249 49.944,32.55 49.601,32.856 C 49.552,32.898 49.547,32.974 49.589,33.023 C 49.631,33.072 49.707,33.077 49.757,33.035 C 50.1,32.73 50.447,32.428 50.794,32.126 C 50.844,32.084 50.849,32.008 50.806,31.959 C 50.764,31.91 50.688,31.905 50.639,31.947 Z" stroke-width="0.5" stroke="none" fill="#000000" fill-rule="evenodd" marker-start="none" marker-end="none" stroke-miterlimit="79.8403193612775"/><path d="M 50.452,23.464 C 50.111,23.659 49.846,23.87 49.535,24.109 C 49.318,24.275 49.103,24.445 48.89,24.616 C 48.135,25.221 47.408,25.855 46.657,26.464 C 46.376,26.692 46.084,26.913 45.798,27.134 C 45.368,27.464 44.918,27.749 44.469,28.049 C 44.302,28.162 44.116,28.256 43.946,28.365 C 43.924,28.377 43.917,28.406 43.93,28.428 C 43.943,28.449 43.971,28.456 43.993,28.443 C 44.476,28.141 44.98,27.864 45.446,27.533 C 45.564,27.449 45.688,27.371 45.808,27.288 C 46.098,27.087 46.387,26.875 46.675,26.669 C 47.474,26.097 48.263,25.495 49.027,24.879 C 49.289,24.668 49.558,24.465 49.822,24.256 C 49.949,24.155 50.084,24.058 50.206,23.952 C 50.479,23.716 50.725,23.476 50.984,23.225 C 50.881,23.216 50.555,23.406 50.452,23.464 Z" stroke-width="0.5" stroke="none" fill="#000000" fill-rule="evenodd" marker-start="none" marker-end="none" stroke-miterlimit="79.8403193612775"/><path d="M 22.488,18.151 C 22.43,18.194 22.426,18.224 22.39,18.28 C 22.155,18.65 22.384,19.132 22.551,19.488 C 22.574,19.539 22.619,19.651 22.633,19.707 C 22.647,19.769 22.654,19.843 22.674,19.902 C 22.707,20.053 22.86,20.149 23.012,20.116 C 23.164,20.082 23.259,19.929 23.226,19.778 C 23.168,19.558 23.124,19.401 23.029,19.189 C 22.93,18.971 22.823,18.79 22.844,18.558 L 22.844,18.5 L 22.922,18.471 C 23.171,18.396 23.457,18.418 23.689,18.517 C 23.745,18.539 23.811,18.51 23.833,18.454 C 23.855,18.398 23.826,18.332 23.77,18.31 C 23.594,18.236 23.42,18.182 23.233,18.142 C 23.127,18.119 23.003,18.103 22.896,18.1 C 22.788,18.097 22.573,18.088 22.488,18.151 Z M 22.69,18.58 L 22.787,18.525 C 22.761,18.55 22.728,18.568 22.69,18.58 Z" stroke-width="0.5" stroke="none" fill="#000000" fill-rule="evenodd" marker-start="none" marker-end="none" stroke-miterlimit="79.8403193612775"/><path d="M 22.675,23.733 C 22.727,23.675 22.704,23.527 22.705,23.45 C 22.708,23.237 22.711,23.025 22.714,22.813 C 22.72,22.361 22.77,21.897 22.811,21.447 C 22.856,20.955 22.913,20.463 22.973,19.973 L 22.927,19.969 C 22.775,21.223 22.658,22.469 22.675,23.733 Z" stroke-width="0.5" stroke="none" fill="#000000" fill-rule="evenodd" marker-start="none" marker-end="none" stroke-miterlimit="79.8403193612775"/><path d="M 22.362,32.165 C 22.282,32.614 22.203,33.07 22.157,33.524 C 22.107,34.006 22.104,34.493 22.089,34.977 C 22.072,35.491 22.056,36.005 22.046,36.52 C 22.011,38.332 21.973,40.144 21.953,41.956 C 21.942,42.927 21.941,43.897 21.933,44.867 C 21.931,45.141 21.927,45.417 21.93,45.691 C 21.931,45.797 21.918,45.909 21.923,46.013 C 21.927,46.104 21.937,46.195 21.936,46.287 C 21.934,46.381 21.925,46.505 21.931,46.619 L 21.935,46.671 L 21.936,46.687 C 21.942,46.729 21.95,46.77 21.962,46.804 C 22.014,46.946 22.239,46.974 22.339,46.869 C 22.367,46.839 22.385,46.793 22.397,46.739 L 22.406,46.674 L 22.41,46.7 L 22.411,46.629 L 22.414,46.559 L 22.413,46.481 L 22.415,46.356 C 22.417,46.242 22.42,46.128 22.424,46.013 C 22.427,45.924 22.419,45.827 22.418,45.738 C 22.414,45.464 22.421,45.189 22.42,44.915 C 22.419,44.294 22.43,43.67 22.439,43.049 C 22.469,41.147 22.497,39.248 22.539,37.346 C 22.555,36.621 22.572,35.896 22.593,35.172 C 22.609,34.628 22.64,34.079 22.62,33.536 C 22.602,33.082 22.549,32.62 22.5,32.169 C 22.5,32.131 22.47,32.099 22.432,32.098 C 22.395,32.097 22.363,32.127 22.362,32.165 Z" stroke-width="0.5" stroke="none" fill="#000000" fill-rule="evenodd" marker-start="none" marker-end="none" stroke-miterlimit="79.8403193612775"/><path d="M 52.016,58.2 C 51.957,58.336 51.91,58.48 51.853,58.617 C 51.77,58.814 51.679,59.009 51.57,59.193 L 51.513,59.28 L 51.448,59.282 C 51.232,59.308 51.078,59.505 51.104,59.721 L 51.12,59.758 L 51.063,59.803 C 50.916,59.919 50.699,60.062 50.591,60.104 C 50.54,60.124 50.49,60.139 50.44,60.162 C 50.404,60.178 50.334,60.19 50.294,60.198 C 50.19,60.218 50.087,60.234 49.983,60.246 L 49.91,60.251 L 49.805,60.253 L 49.74,60.262 L 49.67,60.266 L 49.693,60.267 L 49.618,60.277 C 49.561,60.291 49.515,60.311 49.485,60.339 L 49.445,60.369 L 49.42,60.41 C 49.322,60.559 49.361,60.738 49.505,60.838 C 49.558,60.875 49.629,60.902 49.695,60.896 C 50.223,60.897 50.846,60.939 51.331,60.713 C 51.432,60.666 51.545,60.565 51.624,60.486 C 51.671,60.439 51.699,60.373 51.737,60.319 C 51.802,60.224 51.87,59.887 51.874,59.766 C 51.875,59.732 51.878,59.656 51.886,59.626 C 51.882,59.598 51.877,59.573 51.869,59.548 L 51.854,59.516 L 51.876,59.465 C 52.022,59.074 52.126,58.648 52.271,58.292 C 52.295,58.222 52.26,58.144 52.19,58.119 C 52.12,58.094 52.041,58.13 52.016,58.2 Z" stroke-width="0.5" stroke="none" fill="#000000" fill-rule="evenodd" marker-start="none" marker-end="none" stroke-miterlimit="79.8403193612775"/><path d="M 32.073,49.793 C 31.999,50.622 31.907,51.448 31.839,52.278 C 31.815,52.579 31.825,52.909 31.826,53.213 C 31.829,54.092 31.853,54.952 31.943,55.826 C 31.967,56.018 32.144,56.154 32.336,56.13 C 32.528,56.107 32.664,55.929 32.641,55.737 C 32.514,54.987 32.45,54.179 32.439,53.42 C 32.436,53.191 32.431,52.961 32.436,52.732 C 32.439,52.58 32.447,52.425 32.441,52.273 C 32.408,51.465 32.433,50.636 32.511,49.831 C 32.52,49.71 32.431,49.603 32.311,49.593 C 32.19,49.583 32.083,49.673 32.073,49.793 Z" stroke-width="0.5" stroke="none" fill="#000000" fill-rule="evenodd" marker-start="none" marker-end="none" stroke-miterlimit="79.8403193612775"/><path d="M 32.011,51.322 C 31.865,51.77 31.726,52.217 31.59,52.668 C 31.42,53.236 31.243,53.874 31.142,54.458 C 31.054,54.964 30.958,55.457 30.941,55.973 C 30.902,57.078 31.162,58.209 31.908,59.053 C 32.159,59.336 32.467,59.562 32.79,59.756 C 33.155,59.976 33.59,60.139 33.998,60.263 C 34.131,60.303 34.272,60.332 34.406,60.37 C 34.535,60.406 34.676,60.423 34.807,60.453 C 34.953,60.486 35.103,60.502 35.249,60.53 C 35.762,60.627 36.33,60.668 36.849,60.712 C 37.612,60.777 38.393,60.819 39.151,60.91 C 39.447,60.946 39.74,60.986 40.034,61.024 C 40.206,61.048 40.366,60.927 40.39,60.755 C 40.414,60.584 40.292,60.423 40.121,60.4 C 39.949,60.366 39.762,60.351 39.589,60.329 C 39.352,60.298 39.117,60.273 38.879,60.254 C 38.544,60.225 38.209,60.193 37.873,60.17 C 37.557,60.148 37.24,60.123 36.925,60.097 C 35.899,60.013 34.817,59.911 33.839,59.571 C 33.524,59.461 33.244,59.312 32.959,59.141 C 32.763,59.024 32.57,58.845 32.407,58.683 C 32.151,58.426 31.97,58.097 31.834,57.765 C 31.631,57.272 31.569,56.718 31.547,56.189 C 31.513,55.427 31.553,54.716 31.676,53.96 C 31.817,53.099 32.04,52.247 32.313,51.418 C 32.339,51.336 32.293,51.246 32.21,51.219 C 32.127,51.193 32.038,51.239 32.011,51.322 Z" stroke-width="0.5" stroke="none" fill="#000000" fill-rule="evenodd" marker-start="none" marker-end="none" stroke-miterlimit="79.8403193612775"/><path d="M 51.941,58.636 C 51.954,58.901 52.051,59.513 51.892,59.725 C 51.8,59.85 51.732,59.882 51.609,59.976 C 51.49,60.056 51.458,60.218 51.537,60.337 C 51.617,60.457 51.78,60.489 51.899,60.409 C 52.047,60.296 52.218,60.2 52.324,60.043 C 52.626,59.592 52.561,59.15 52.607,58.634 C 52.607,58.451 52.456,58.302 52.273,58.302 C 52.089,58.302 51.941,58.453 51.941,58.636 Z" stroke-width="0.5" stroke="none" fill="#000000" fill-rule="evenodd" marker-start="none" marker-end="none" stroke-miterlimit="79.8403193612775"/><path d="M 20.074,61.013 L 19.952,61.102 L 19.931,61.125 L 19.895,61.155 C 19.774,61.285 19.637,61.41 19.509,61.535 L 18.826,62.196 C 18.815,62.102 18.77,62.02 18.696,61.964 C 18.547,61.85 18.333,61.88 18.219,62.029 C 17.637,62.779 17.073,63.557 16.519,64.328 L 16.023,65.002 L 14.996,66.126 C 14.614,66.568 14.248,67.022 13.903,67.494 C 13.818,67.604 13.839,67.763 13.948,67.847 C 14.057,67.932 14.216,67.911 14.301,67.802 L 14.492,67.563 L 14.648,67.627 C 14.769,67.639 14.855,67.596 14.931,67.531 L 14.963,67.497 L 15.149,67.306 C 15.221,67.238 15.29,67.158 15.358,67.086 C 15.545,66.891 15.731,66.697 15.917,66.502 C 17.087,65.28 18.298,64.055 19.389,62.761 C 19.602,62.509 19.816,62.247 20.034,62 C 20.12,61.902 20.217,61.793 20.296,61.689 L 20.415,61.539 L 20.493,61.41 C 20.533,61.315 20.53,61.214 20.428,61.091 C 20.355,61.005 20.178,60.959 20.074,61.013 Z" stroke-width="0.5" stroke="none" fill="#000000" fill-rule="evenodd" marker-start="none" marker-end="none" stroke-miterlimit="79.8403193612775"/><path d="M 38.823,66.814 L 38.766,66.882 C 38.752,66.91 38.741,66.941 38.732,66.973 L 38.718,67.043 L 38.713,67.072 C 38.702,67.139 38.697,67.208 38.689,67.271 C 38.664,67.463 38.644,67.658 38.632,67.851 C 38.628,67.916 38.628,67.982 38.628,68.047 L 38.622,68.225 L 38.585,68.723 C 38.546,69.288 38.515,69.853 38.497,70.419 C 38.481,70.917 38.457,71.414 38.455,71.914 C 38.454,72.099 38.438,72.317 38.452,72.498 L 38.458,72.542 L 38.462,72.718 C 38.465,72.792 38.47,72.866 38.479,72.94 C 38.484,72.988 38.486,73.025 38.492,73.071 L 38.501,73.123 C 38.505,73.144 38.512,73.165 38.52,73.19 C 38.544,73.257 38.588,73.305 38.657,73.344 L 38.675,73.651 C 38.674,73.805 38.798,73.931 38.952,73.932 C 39.106,73.933 39.232,73.809 39.233,73.655 C 39.241,73.371 39.267,73.087 39.273,72.804 C 39.287,72.234 39.303,71.665 39.312,71.095 C 39.318,70.7 39.317,70.306 39.319,69.911 L 39.319,69.874 L 39.36,69.611 C 39.404,69.348 39.449,69.085 39.491,68.82 C 39.568,68.336 39.614,67.865 39.653,67.379 C 39.659,67.272 39.6,67.174 39.509,67.128 L 39.48,67.116 L 39.478,67.047 C 39.47,66.933 39.425,66.831 39.307,66.751 C 39.159,66.651 38.94,66.676 38.823,66.814 Z" stroke-width="0.5" stroke="none" fill="#000000" fill-rule="evenodd" marker-start="none" marker-end="none" stroke-miterlimit="79.8403193612775"/><path d="M 56.94,61.331 C 56.881,61.391 56.883,61.49 56.943,61.549 C 57.088,61.689 57.206,61.849 57.345,61.993 C 57.52,62.175 57.708,62.345 57.884,62.525 C 58.493,63.149 59.085,63.788 59.69,64.416 C 60.469,65.225 61.217,65.984 62.075,66.711 C 62.298,66.899 62.543,67.102 62.781,67.27 C 63.099,67.494 63.409,67.71 63.736,67.924 C 63.916,68.042 64.111,68.145 64.293,68.26 C 64.371,68.309 64.474,68.35 64.566,68.334 C 64.715,68.309 64.826,68.165 64.828,68.017 C 64.832,67.844 64.581,67.639 64.47,67.511 C 64.127,67.118 63.714,66.734 63.315,66.398 C 63.103,66.219 62.896,66.036 62.684,65.857 C 62.124,65.387 61.537,64.945 60.975,64.477 C 60.507,64.086 60.066,63.708 59.639,63.274 C 59.495,63.129 59.33,62.967 59.202,62.808 C 59.071,62.671 58.852,62.667 58.712,62.801 L 58.42,62.52 C 58.153,62.253 57.888,61.983 57.613,61.723 C 57.467,61.585 57.3,61.473 57.158,61.328 C 57.098,61.269 56.999,61.271 56.94,61.331 Z" stroke-width="0.5" stroke="none" fill="#000000" fill-rule="evenodd" marker-start="none" marker-end="none" stroke-miterlimit="79.8403193612775"/><path d="M 60.589,47.102 C 60.551,47.192 60.595,47.299 60.685,47.336 C 61.079,47.51 61.483,47.661 61.881,47.824 C 62.045,47.891 62.213,47.958 62.382,48.024 L 62.886,48.213 L 62.95,48.248 C 63.196,48.337 63.433,48.455 63.685,48.539 C 64.025,48.652 64.357,48.744 64.703,48.836 L 65.04,48.916 L 65.187,48.96 C 65.328,49.001 65.47,49.039 65.613,49.076 C 65.762,49.113 65.926,49.144 66.077,49.17 C 66.453,49.236 66.826,49.307 67.203,49.372 C 67.594,49.439 68.012,49.501 68.406,49.537 C 68.562,49.551 68.736,49.56 68.889,49.583 C 69.081,49.613 69.284,49.465 69.312,49.272 C 69.338,49.089 69.2,48.895 69.02,48.859 C 68.871,48.828 68.721,48.8 68.574,48.767 C 68.501,48.751 68.43,48.725 68.355,48.709 C 68.162,48.669 67.954,48.641 67.758,48.611 C 67.073,48.502 66.377,48.414 65.697,48.281 C 65.347,48.212 64.988,48.147 64.644,48.051 C 64.406,47.984 64.174,47.911 63.938,47.837 C 63.704,47.764 63.466,47.652 63.24,47.558 C 63.073,47.488 62.884,47.547 62.785,47.691 L 62.774,47.713 L 62.394,47.596 C 62.186,47.529 61.98,47.459 61.779,47.383 C 61.458,47.26 61.143,47.128 60.823,47.005 C 60.733,46.968 60.626,47.011 60.589,47.102 Z" stroke-width="0.5" stroke="none" fill="#000000" fill-rule="evenodd" marker-start="none" marker-end="none" stroke-miterlimit="79.8403193612775"/><path d="M 68.548,27.595 C 67.75,27.62 66.981,27.715 66.204,27.827 L 65.987,27.859 L 66.18,27.781 C 66.217,27.775 66.243,27.738 66.237,27.7 C 66.231,27.663 66.193,27.637 66.156,27.643 C 65.571,27.611 65.054,27.589 64.47,27.676 C 64.169,27.72 63.879,27.814 63.59,27.901 C 63.407,27.957 63.226,28.026 63.045,28.078 C 62.953,28.104 62.857,28.127 62.769,28.163 C 62.615,28.227 62.458,28.292 62.304,28.352 C 62.118,28.424 61.591,28.641 61.475,28.77 C 61.358,28.898 61.353,29.081 61.435,29.227 C 61.573,29.473 61.801,29.435 62.031,29.39 C 62.553,29.287 63.077,29.187 63.6,29.09 C 64.438,28.933 65.279,28.776 66.122,28.65 L 66.364,28.618 L 67.08,28.632 C 67.696,28.645 68.301,28.645 68.916,28.628 C 69.441,28.613 69.958,28.528 70.476,28.451 C 70.76,28.409 70.885,28.032 70.689,27.822 C 70.58,27.703 70.344,27.681 70.185,27.654 C 69.646,27.562 69.093,27.577 68.548,27.595 Z" stroke-width="0.5" stroke="none" fill="#000000" fill-rule="evenodd" marker-start="none" marker-end="none" stroke-miterlimit="79.8403193612775"/><path d="M 62.308,6.941 L 62.188,7.002 L 62.159,7.024 L 62.007,7.134 C 61.95,7.177 61.894,7.223 61.844,7.264 L 61.792,7.308 L 61.462,7.566 C 61.226,7.761 60.997,7.962 60.771,8.169 L 59.866,9.046 L 59.727,9.146 C 59.55,9.282 59.376,9.423 59.208,9.568 C 58.556,10.128 57.93,10.702 57.303,11.288 C 57.109,11.469 56.909,11.646 56.716,11.828 C 56.463,12.07 56.179,12.281 55.919,12.511 C 55.745,12.655 55.72,12.914 55.864,13.089 L 55.921,13.135 L 55.95,13.204 C 55.972,13.227 56.003,13.237 56.034,13.237 L 56.082,13.218 L 56.141,13.236 C 56.245,13.245 56.354,13.216 56.442,13.144 L 56.835,12.8 C 56.757,12.927 56.774,13.068 56.859,13.184 C 56.981,13.348 57.234,13.362 57.379,13.219 C 57.474,13.124 57.584,13.038 57.683,12.946 C 57.946,12.7 58.22,12.423 58.456,12.151 C 58.873,11.669 59.271,11.19 59.669,10.691 L 60.097,10.154 L 60.524,9.708 C 60.639,9.593 60.762,9.476 60.872,9.355 C 60.95,9.269 61.037,9.207 61.096,9.1 C 61.132,9.036 61.146,8.969 61.141,8.903 L 61.588,8.423 L 62.148,7.9 L 62.353,7.746 C 62.41,7.701 62.466,7.655 62.517,7.61 L 62.557,7.571 L 62.605,7.534 L 62.582,7.546 L 62.658,7.472 C 62.851,7.253 62.657,6.906 62.361,6.937 L 62.308,6.941 Z" stroke-width="0.5" stroke="none" fill="#000000" fill-rule="evenodd" marker-start="none" marker-end="none" stroke-miterlimit="79.8403193612775"/><path d="M 37.605,1.247 C 37.583,1.282 37.566,1.335 37.553,1.397 L 37.544,1.417 L 37.54,1.464 L 37.534,1.498 C 37.506,1.673 37.496,1.883 37.49,1.997 C 37.488,2.029 37.49,2.061 37.491,2.094 L 37.491,2.184 L 37.49,2.207 L 37.463,2.493 C 37.438,2.798 37.42,3.104 37.401,3.408 C 37.277,5.339 37.222,7.273 37.293,9.207 C 37.3,9.387 37.3,9.548 37.467,9.663 C 37.622,9.77 37.871,9.751 37.974,9.583 C 38,9.541 38.018,9.536 38.031,9.485 C 38.036,9.462 38.04,9.437 38.045,9.413 L 38.056,9.338 C 38.077,9.177 38.081,8.993 38.095,8.848 C 38.123,8.536 38.197,8.243 38.13,7.933 C 38.112,7.854 38.089,7.789 38.059,7.729 L 38.036,7.682 L 38.039,7.621 C 38.105,6.364 38.184,5.1 38.224,3.842 C 38.234,3.512 38.24,3.183 38.243,2.855 L 38.247,2.134 L 38.26,2.06 C 38.271,1.965 38.278,1.867 38.284,1.771 L 38.292,1.668 C 38.298,1.617 38.302,1.575 38.304,1.532 L 38.309,1.482 L 38.304,1.507 L 38.305,1.476 L 38.302,1.423 C 38.292,1.331 38.275,1.281 38.221,1.202 L 38.174,1.165 C 37.995,1.014 37.73,1.042 37.605,1.247 Z" stroke-width="0.5" stroke="none" fill="#000000" fill-rule="evenodd" marker-start="none" marker-end="none" stroke-miterlimit="79.8403193612775"/><path d="M 12.648,7.089 C 12.577,7.171 12.565,7.286 12.612,7.378 L 12.448,7.388 C 12.349,7.419 12.293,7.455 12.232,7.54 C 12.185,7.606 12.177,7.625 12.162,7.705 C 12.147,7.783 12.155,7.864 12.189,7.937 C 12.257,8.082 12.473,8.297 12.583,8.432 C 12.809,8.71 13.044,9.051 13.313,9.284 C 13.58,9.517 13.926,9.687 14.257,9.808 C 14.29,9.837 14.341,9.835 14.371,9.803 L 14.39,9.745 L 15.25,10.397 C 15.64,10.688 16.032,10.976 16.429,11.258 C 16.955,11.632 17.471,12.022 18.001,12.394 C 18.07,12.443 18.143,12.501 18.217,12.545 L 18.266,12.569 L 18.654,12.832 L 18.861,12.962 L 18.918,13.001 L 18.967,13.029 C 19.281,13.181 19.608,12.883 19.469,12.568 C 19.451,12.528 19.414,12.484 19.366,12.437 L 19.314,12.394 L 19.338,12.404 L 19.277,12.362 L 19.199,12.298 C 19.077,12.207 18.944,12.121 18.865,12.065 C 18.779,12.004 18.718,11.915 18.632,11.855 C 18.242,11.579 17.854,11.301 17.463,11.026 L 17.17,10.813 L 16.99,10.666 C 16.838,10.544 16.691,10.403 16.544,10.273 C 16.192,9.961 15.848,9.646 15.504,9.325 C 14.686,8.562 13.876,7.782 13.021,7.061 C 12.91,6.966 12.743,6.978 12.648,7.089 Z" stroke-width="0.5" stroke="none" fill="#000000" fill-rule="evenodd" marker-start="none" marker-end="none" stroke-miterlimit="79.8403193612775"/><path d="M 7.228,25.953 C 7.227,25.989 7.234,26.025 7.247,26.058 L 7.279,26.105 L 7.26,26.156 C 7.2,26.377 7.342,26.574 7.554,26.635 C 7.603,26.649 7.77,26.682 7.817,26.675 C 7.846,26.671 7.887,26.66 7.915,26.662 C 7.983,26.665 8.076,26.687 8.145,26.7 C 8.332,26.733 8.518,26.771 8.705,26.806 C 10.044,27.064 11.366,27.371 12.712,27.539 L 13.206,27.591 L 13.774,27.783 C 14.026,27.865 14.279,27.945 14.53,28.021 C 14.696,28.071 14.878,28.11 15.04,28.165 C 15.168,28.209 15.316,28.233 15.434,28.157 C 15.673,28.003 15.649,27.663 15.397,27.537 C 15.253,27.465 15.136,27.356 14.985,27.293 L 14.399,27.066 L 14.36,27.013 C 14.294,26.942 14.2,26.896 14.096,26.893 L 13.9,26.887 L 13.759,26.837 C 13.332,26.686 12.883,26.576 12.444,26.466 C 12.077,26.375 11.701,26.291 11.322,26.219 L 10.877,26.141 L 10.673,26.083 C 10.471,26.024 10.218,25.955 10.012,25.919 C 9.156,25.772 8.372,25.68 7.502,25.685 C 7.353,25.684 7.229,25.804 7.228,25.953 Z" stroke-width="0.5" stroke="none" fill="#000000" fill-rule="evenodd" marker-start="none" marker-end="none" stroke-miterlimit="79.8403193612775"/><path d="M 13.129,44.805 C 12.4,44.971 11.665,45.186 10.97,45.462 C 10.402,45.686 9.847,45.924 9.286,46.165 C 8.445,46.528 7.608,46.896 6.763,47.251 C 6.665,47.292 6.592,47.37 6.553,47.461 L 6.549,47.485 L 6.399,47.538 C 6.279,47.579 6.215,47.712 6.256,47.831 C 6.296,47.95 6.429,48.014 6.549,47.974 L 6.697,47.923 L 6.764,47.967 C 6.856,48.004 6.962,48.007 7.061,47.967 C 7.38,47.825 7.711,47.704 8.032,47.565 L 8.695,47.273 L 8.922,47.202 C 9.718,46.962 10.517,46.731 11.317,46.497 C 11.801,46.354 12.283,46.18 12.767,46.029 C 13.326,45.855 13.873,45.651 14.425,45.457 C 14.54,45.416 14.664,45.386 14.784,45.359 C 14.816,45.352 14.917,45.334 14.94,45.323 C 15,45.295 15.045,45.265 15.086,45.215 C 15.294,44.969 15.132,44.627 14.812,44.611 C 14.263,44.585 13.665,44.684 13.129,44.805 Z" stroke-width="0.5" stroke="none" fill="#000000" fill-rule="evenodd" marker-start="none" marker-end="none" stroke-miterlimit="79.8403193612775"/></g></g></g><text x="0" y="90" fill="#000000" font-size="5px" font-weight="bold" font-family="'Helvetica Neue', Helvetica, Arial-Unicode, Arial, Sans-serif">Created by Denis Sazhin</text><text x="0" y="95" fill="#000000" font-size="5px" font-weight="bold" font-family="'Helvetica Neue', Helvetica, Arial-Unicode, Arial, Sans-serif">from the Noun Project</text></svg>