<svg xmlns:xlink="http://www.w3.org/1999/xlink" xmlns="http://www.w3.org/2000/svg" stroke-width="0.501" stroke-linejoin="bevel" fill-rule="evenodd" version="1.1" overflow="visible" viewBox="0 0 75 93.75" x="0px" y="0px"><g fill="none" stroke="black" font-family="Times New Roman" font-size="16" transform="scale(1 -1)"><g transform="translate(0 -75)"><g><path d="M 2.431,3.909 C 2.226,4.05 2.016,4.191 1.815,4.338 C 1.647,4.455 1.605,4.689 1.722,4.857 L 1.894,4.967 L 2.645,7.173 L 2.666,7.432 L 2.711,7.651 L 2.419,6.916 C 2.283,6.588 2.154,6.257 2.004,5.935 C 1.716,5.318 1.346,4.75 1.091,4.114 C 1.036,3.986 0.885,3.927 0.757,3.982 C 0.629,4.037 0.57,4.188 0.625,4.316 C 0.969,5.06 1.155,5.861 1.467,6.618 C 2.918,10.144 4.168,13.718 5.43,17.315 C 6.033,19.035 6.625,20.771 7.272,22.475 C 8.253,25.057 9.217,27.658 10.422,30.147 C 10.519,30.366 10.777,30.466 10.996,30.369 L 11.107,30.251 L 11.84,32.08 L 11.931,32.299 L 11.781,32.151 C 11.69,32.071 11.599,31.982 11.505,31.907 C 11.144,31.622 10.739,31.376 10.372,31.093 C 10.285,31.026 10.158,31.043 10.091,31.13 C 10.024,31.217 10.041,31.344 10.128,31.411 C 10.315,31.559 10.51,31.708 10.686,31.868 C 10.828,31.997 10.961,32.137 11.1,32.269 C 11.308,32.466 11.536,32.649 11.746,32.845 L 11.941,33.034 L 11.891,33.119 L 11.975,33.169 L 12.059,33.146 L 12.441,33.514 L 12.745,34.149 L 10.668,32.456 C 10.566,32.374 10.415,32.389 10.333,32.491 C 10.251,32.593 10.266,32.744 10.368,32.826 L 10.802,33.18 L 10.697,33.148 L 10.571,33.215 C 10.506,33.294 10.517,33.413 10.596,33.478 C 11.308,34.064 12.013,34.661 12.714,35.26 C 13.278,35.741 13.834,36.228 14.409,36.696 L 16.131,38.092 L 15.621,38.263 C 15.564,38.282 15.533,38.347 15.552,38.404 C 15.571,38.461 15.636,38.492 15.693,38.473 L 16.34,38.263 L 19.343,40.722 L 19.294,40.805 L 19.376,40.851 L 19.494,40.821 L 31.635,50.669 L 44.373,61.659 C 44.877,62.071 45.378,62.491 45.879,62.909 C 46.799,63.677 47.731,64.433 48.656,65.195 C 50.261,66.516 51.882,67.831 53.452,69.194 L 53.631,69.349 L 53.495,69.361 C 53.322,69.369 53.189,69.518 53.197,69.691 C 53.205,69.864 53.354,69.997 53.527,69.989 L 54.311,69.937 L 54.577,70.167 L 54.881,70.438 L 54.545,70.624 C 54.462,70.663 54.427,70.764 54.466,70.847 C 54.505,70.93 54.606,70.965 54.689,70.926 L 55.2,70.722 L 55.883,71.329 C 55.986,71.42 56.116,71.461 56.279,71.438 C 56.35,71.447 56.418,71.433 56.474,71.392 L 56.732,71.236 C 56.811,71.238 56.872,71.21 56.917,71.159 L 56.942,71.082 L 57.664,70.606 C 57.999,70.401 58.362,70.221 58.719,70.057 C 59.399,69.743 60.085,69.476 60.784,69.242 L 62.272,68.813 L 62.136,69.027 C 62.053,69.158 62.093,69.334 62.224,69.417 C 62.355,69.5 62.531,69.46 62.614,69.329 L 62.836,69.018 C 62.838,69.112 62.874,69.183 62.936,69.233 C 63.06,69.333 63.243,69.314 63.343,69.19 C 63.573,68.9 63.825,68.631 64.088,68.356 L 64.639,68.225 L 64.395,68.637 C 64.319,68.766 64.363,68.934 64.492,69.01 C 64.621,69.086 64.789,69.042 64.865,68.913 L 65.413,68.034 L 66.503,67.751 C 66.995,67.568 67.453,67.329 67.915,67.084 C 67.977,67.067 68.014,67.002 67.997,66.94 C 67.98,66.878 67.915,66.841 67.853,66.858 L 66.684,66.977 L 66.699,66.638 L 66.467,66.347 L 67.554,64.82 L 67.965,64.428 L 69.991,62.368 L 70.119,62.268 L 70.157,62.196 L 70.967,61.347 L 71.762,60.497 C 71.759,60.77 71.751,61.057 71.76,61.33 L 71.772,61.534 L 71.776,61.597 C 71.819,62.072 72.524,62.037 72.535,61.567 C 72.537,61.474 72.55,61.375 72.557,61.282 C 72.581,60.936 72.623,60.591 72.655,60.245 L 72.754,59.318 L 73.298,58.666 L 73.363,58.689 C 73.503,58.683 73.641,58.623 73.743,58.512 C 73.946,58.289 73.93,57.941 73.707,57.738 L 73.005,57.075 L 73.046,56.624 L 73.261,54.99 L 73.381,53.965 L 73.439,53.491 L 74.183,53.122 C 74.462,52.993 74.749,52.891 75.011,52.898 C 75.097,52.892 75.162,52.815 75.156,52.729 C 75.15,52.643 75.073,52.578 74.987,52.584 C 74.6,52.598 74.263,52.724 73.935,52.876 L 73.489,53.077 L 73.802,50.527 L 73.841,50.153 L 73.868,50.036 C 73.934,49.768 74.003,49.5 74.071,49.235 C 74.092,49.148 74.057,49.06 73.975,49.002 L 73.98,48.801 L 74.067,48.49 C 74.111,48.36 74.166,48.227 74.203,48.096 C 74.233,47.991 74.223,47.876 74.177,47.777 L 74.072,47.627 L 74.116,47.08 C 74.13,46.849 74.159,46.591 74.159,46.362 C 74.159,46.268 74.119,46.122 74.054,46.051 C 73.808,45.783 73.382,45.888 73.292,46.243 L 73.276,46.32 L 73.249,46.47 L 73.222,46.672 L 73.09,46.523 C 72.748,46.157 72.412,45.769 72.081,45.392 C 71.861,45.141 71.633,44.889 71.407,44.644 C 70.848,44.039 70.307,43.415 69.748,42.81 L 69.263,42.28 L 70.019,41.783 C 69.715,41.751 69.41,41.726 69.105,41.767 L 68.857,41.841 L 68.234,41.175 L 68.118,41.049 C 68.15,40.986 68.157,40.914 68.134,40.845 C 68.088,40.707 67.937,40.634 67.781,40.682 L 67.206,40.125 L 66.39,39.412 L 67.518,39.098 C 67.685,39.065 67.793,38.901 67.76,38.734 C 67.727,38.567 67.563,38.459 67.396,38.492 C 67.02,38.49 66.705,38.584 66.346,38.677 L 65.757,38.864 L 64.87,38.102 L 64.562,37.841 L 65.193,37.578 C 65.385,37.493 65.472,37.266 65.387,37.074 C 65.302,36.882 65.075,36.795 64.883,36.88 L 63.941,37.313 L 62.671,36.236 C 62.632,36.141 62.559,36.072 62.472,36.037 L 62.414,36.037 L 61.436,35.215 L 61.267,35.074 L 61.562,34.975 C 61.732,34.93 61.833,34.755 61.788,34.585 C 61.743,34.415 61.568,34.314 61.398,34.359 L 60.67,34.579 L 55.398,30.199 L 55.393,29.973 C 55.316,29.799 55.11,29.721 54.929,29.801 L 53.888,28.945 L 54.181,28.857 C 54.351,28.802 54.443,28.618 54.388,28.448 C 54.333,28.278 54.149,28.186 53.979,28.241 L 53.353,28.479 L 51.789,27.107 C 51.834,27.012 51.833,26.928 51.797,26.852 C 51.725,26.699 51.541,26.633 51.388,26.705 L 51.319,26.739 L 48.424,24.249 L 42.846,19.341 L 42.959,19.285 C 43.108,19.219 43.176,19.043 43.11,18.894 C 43.044,18.745 42.868,18.677 42.719,18.743 L 42.358,18.912 L 42.151,18.73 L 38.746,15.271 C 38.787,15.2 38.788,15.142 38.765,15.088 C 38.719,14.98 38.593,14.93 38.46,14.987 L 36.167,12.721 C 34.498,11.028 32.847,9.317 31.189,7.614 C 31.102,7.525 30.958,7.523 30.869,7.61 C 30.78,7.697 30.778,7.841 30.865,7.93 C 32.503,9.612 34.133,11.302 35.771,12.984 L 37.132,14.364 L 35.125,12.639 C 34.587,12.18 34.052,11.717 33.514,11.258 C 33.35,11.119 33.188,10.977 33.025,10.838 C 32.923,10.751 32.806,10.66 32.711,10.568 C 32.577,10.439 32.44,10.349 32.298,10.266 L 31.996,10.089 L 31.156,9.326 L 31.287,9.124 C 31.326,8.903 31.178,8.689 30.957,8.65 L 30.364,8.548 L 30.292,8.301 C 30.209,8.197 30.087,8.125 29.945,8.11 L 29.8,8.091 L 29.136,7.519 C 29.075,7.464 28.979,7.468 28.924,7.529 C 28.869,7.59 28.873,7.686 28.934,7.741 L 29.226,8.018 L 28.549,7.933 C 28.016,7.839 27.49,7.744 26.961,7.629 C 26.787,7.591 26.602,7.558 26.431,7.512 C 26.26,7.466 26.079,7.429 25.906,7.388 C 25.438,7.278 24.954,7.148 24.49,7.02 L 22.416,6.464 L 22.407,6.379 C 22.346,6.267 22.204,6.227 22.092,6.288 L 21.977,6.347 L 19.843,5.862 L 20.166,5.689 C 20.273,5.636 20.316,5.505 20.263,5.398 C 20.21,5.291 20.079,5.248 19.972,5.301 L 19.2,5.733 L 15.92,5.22 L 14.282,5.022 L 14.32,4.956 C 14.328,4.898 14.313,4.836 14.275,4.786 C 14.198,4.685 14.053,4.666 13.952,4.743 L 13.671,4.948 L 12.615,4.831 L 11.992,4.772 L 11.99,4.703 C 11.946,4.607 11.831,4.564 11.735,4.608 L 11.5,4.725 L 8.182,4.411 C 7.324,4.325 6.47,4.23 5.616,4.116 C 5.153,4.054 4.686,3.997 4.225,3.92 C 3.889,3.864 3.552,3.809 3.216,3.754 C 3.076,3.731 2.867,3.669 2.727,3.719 C 2.626,3.755 2.519,3.849 2.431,3.909 Z M 2.936,4.466 L 3.852,4.627 L 4.024,4.653 L 3.994,4.74 L 3.958,4.874 L 3.668,4.818 L 2.746,4.597 L 2.936,4.466 Z M 4.558,4.736 L 4.894,4.788 L 4.784,5.034 L 4.582,4.995 L 4.558,4.736 Z M 5.259,4.855 L 5.765,4.923 L 10.004,5.475 L 9.472,5.797 L 8.064,5.556 L 8.041,5.388 C 7.976,5.258 7.798,5.217 7.683,5.308 C 7.654,5.331 7.629,5.377 7.609,5.436 L 7.589,5.514 L 6.584,5.369 L 6.54,5.181 L 6.461,5.093 C 6.406,5.057 6.352,5.047 6.288,5.06 C 6.204,5.077 6.156,5.134 6.122,5.204 L 6.094,5.288 L 5.318,5.137 L 5.259,4.855 Z M 2.36,4.905 L 3.291,5.095 L 3.211,5.27 C 3.189,5.355 3.175,5.444 3.169,5.494 C 3.127,5.821 3.155,6.152 3.119,6.475 C 3.11,6.559 3.105,6.684 3.08,6.768 L 2.808,6.077 L 2.838,5.776 L 2.764,5.963 L 2.403,5.032 L 2.36,4.905 Z M 3.586,5.155 L 3.842,5.208 L 3.791,5.252 C 3.765,5.303 3.759,5.364 3.778,5.422 L 3.788,5.512 L 3.68,6.106 L 3.633,5.575 C 3.627,5.516 3.617,5.456 3.611,5.397 L 3.586,5.155 Z M 4.603,5.363 L 4.696,5.383 L 4.621,5.693 L 4.603,5.363 Z M 5.364,5.519 L 5.987,5.646 L 5.904,5.953 L 5.865,6.132 L 5.433,6.149 L 5.375,5.605 L 5.364,5.519 Z M 10.71,5.556 L 11.447,5.651 L 12.535,5.783 L 12.406,5.878 L 12.189,6.004 C 12.078,5.915 11.877,5.94 11.81,6.072 L 11.794,6.154 L 11.025,6.064 L 10.04,5.895 L 10.71,5.556 Z M 6.652,5.782 L 7.2,5.894 L 7.514,5.942 L 7.503,6.025 L 7.497,6.075 L 7.337,6.072 L 6.688,6.098 L 6.652,5.782 Z M 13.193,5.862 L 13.434,5.892 L 13.36,6.318 L 12.814,6.274 L 12.613,6.25 L 13.193,5.862 Z M 14.257,5.992 L 14.699,6.045 L 14.301,6.295 L 14.257,5.992 Z M 8.069,6.028 L 8.483,6.092 L 8.07,6.085 L 8.069,6.028 Z M 15.255,6.114 L 16.191,6.275 L 15.685,6.561 L 14.938,6.446 L 14.741,6.43 L 15.255,6.114 Z M 3.359,6.329 L 3.365,6.401 C 3.374,6.744 3.381,7.085 3.383,7.428 L 3.38,7.552 L 3.192,7.069 L 3.245,6.926 C 3.278,6.793 3.302,6.657 3.32,6.56 L 3.359,6.329 Z M 7.461,6.349 L 7.381,7.065 L 7.207,7.172 L 6.779,7.425 L 6.773,6.962 L 7.299,6.735 C 7.354,6.715 7.383,6.652 7.363,6.597 C 7.343,6.542 7.28,6.513 7.225,6.533 L 6.756,6.701 L 6.711,6.349 L 7.461,6.349 Z M 8.563,6.349 L 8.075,6.645 L 8.072,6.349 L 8.563,6.349 Z M 9.203,6.357 L 10.6,6.421 L 11.386,6.543 L 11.014,6.786 C 11.006,6.723 11,6.664 10.978,6.604 C 10.923,6.456 10.725,6.411 10.6,6.498 L 10.531,6.575 L 10.354,7.216 L 9.54,7.735 L 9.516,7.332 C 9.497,7.168 9.527,6.858 9.336,6.796 C 9.025,6.695 8.996,7.085 8.943,7.288 L 8.761,8.231 L 8.502,8.396 L 8.072,8.691 L 8.091,8.005 L 8.079,7.011 L 9.203,6.357 Z M 5.814,6.371 L 5.689,6.959 L 5.652,7.221 L 5.489,7.302 L 5.459,6.39 L 5.814,6.371 Z M 17.006,6.387 L 17.86,6.52 L 17.464,6.822 L 17.109,6.78 L 16.562,6.696 L 16.608,6.6 L 17.006,6.387 Z M 4.968,6.409 L 5.022,7.058 L 5.036,7.528 L 4.977,7.558 L 4.79,7.011 L 4.968,6.409 Z M 4.127,6.446 L 4.154,6.523 L 4.093,8.068 L 3.796,8.274 L 3.985,6.742 L 4.046,6.45 L 4.127,6.446 Z M 6.278,6.463 L 6.304,6.895 L 6.17,6.962 L 6.193,6.808 L 6.278,6.463 Z M 18.494,6.62 L 18.979,6.696 C 19.441,6.787 19.898,6.881 20.358,6.988 L 20.683,7.073 L 20.5,7.181 L 18.07,6.893 L 18.494,6.62 Z M 12.386,6.699 L 13.272,6.836 L 13.251,6.953 L 12.586,7.371 L 12.456,7.464 L 12.386,6.699 Z M 11.683,6.869 L 11.657,7.082 L 11.555,8.119 L 11.168,8.4 L 11.058,7.251 L 11.683,6.869 Z M 14.354,6.985 L 14.878,7.056 L 14.379,7.385 L 14.354,6.985 Z M 13.826,6.992 L 13.843,7.58 L 13.854,7.79 L 13.65,7.936 L 13.747,7.04 L 13.826,6.992 Z M 15.576,7.153 L 15.695,7.168 L 15.622,7.337 L 15.616,7.668 L 15.51,8.002 C 15.35,8.013 15.202,8.118 15.134,8.264 L 14.817,8.94 L 14.544,9.182 L 14.435,8.666 L 14.402,7.919 L 15.576,7.153 Z M 6.321,7.158 L 6.328,7.269 L 6.317,7.699 L 6.041,7.863 L 6.13,7.241 L 6.321,7.158 Z M 16.517,7.28 L 16.809,7.319 L 16.541,7.523 L 16.546,7.353 L 16.517,7.28 Z M 17.321,7.389 L 19.556,7.693 L 19.679,7.71 L 17.925,8.872 L 16.174,10.231 L 16.211,10.109 C 16.296,9.773 16.365,9.432 16.413,9.09 C 16.446,8.857 16.487,8.605 16.5,8.371 L 16.525,7.985 L 16.868,7.713 L 17.321,7.389 Z M 13.184,7.4 L 13.088,8.364 L 12.479,8.857 L 12.488,7.872 L 13.184,7.4 Z M 7.34,7.441 L 7.251,8.254 L 7.168,9.313 L 6.671,9.654 L 6.787,7.947 L 6.784,7.765 L 7.34,7.441 Z M 5.618,7.463 L 5.53,8.096 L 5.521,8.171 L 5.497,7.524 L 5.552,7.492 L 5.618,7.463 Z M 2.722,7.676 L 2.813,7.69 L 3.171,8.774 L 2.722,7.676 Z M 10.258,7.74 L 9.981,9.279 L 9.974,9.333 L 9.606,9.644 L 9.611,9.242 L 9.562,8.166 L 9.641,8.117 L 10.258,7.74 Z M 20.406,7.816 L 21.877,8.029 L 19.869,9.407 C 17.854,10.876 15.968,12.497 14.128,14.202 C 14.064,14.261 14.06,14.361 14.119,14.425 C 14.178,14.489 14.278,14.493 14.342,14.434 C 16.493,12.398 18.787,10.572 21.234,8.944 L 22.544,8.125 L 24.205,8.366 L 22.486,9.51 C 21.159,10.454 19.889,11.485 18.607,12.489 C 18.309,12.722 18.01,12.953 17.709,13.182 C 17.564,13.292 17.421,13.411 17.273,13.518 C 17.085,13.654 16.901,13.796 16.715,13.934 C 16.527,14.074 16.332,14.206 16.144,14.346 C 16.081,14.391 16.067,14.481 16.112,14.544 C 16.157,14.607 16.247,14.621 16.31,14.576 C 17.062,14.03 17.805,13.476 18.548,12.916 C 19.498,12.2 20.43,11.464 21.397,10.77 C 22.377,10.067 23.348,9.396 24.391,8.788 L 24.95,8.474 L 25.194,8.51 L 26.873,8.792 L 25.825,9.446 C 25.586,9.605 25.344,9.76 25.112,9.929 C 24.88,10.098 24.646,10.265 24.413,10.432 C 23.777,10.887 23.151,11.391 22.541,11.881 C 21.277,12.896 20.028,13.97 18.854,15.088 L 18.847,15.249 L 19.008,15.256 C 19.358,14.941 19.7,14.612 20.056,14.304 C 20.378,14.025 20.704,13.751 21.029,13.476 C 21.605,12.988 22.219,12.523 22.825,12.073 C 23.647,11.463 24.481,10.882 25.339,10.325 C 25.687,10.099 26.024,9.857 26.375,9.636 L 27.561,8.907 L 30.777,9.448 L 31.003,9.653 L 30.962,9.781 C 30.966,9.834 30.99,9.886 31.034,9.923 L 31.408,10.303 L 31.353,10.312 L 31.278,10.359 L 30.962,10.428 L 30.839,10.451 C 30.668,10.239 30.357,10.208 30.147,10.379 C 29.9,10.557 29.654,10.806 29.452,11.034 C 29.244,11.268 29.061,11.507 28.9,11.754 L 28.784,11.963 L 27.345,12.89 C 26.545,13.427 25.716,13.969 24.95,14.553 C 24.586,14.83 24.21,15.094 23.855,15.383 L 23.839,15.513 L 23.969,15.529 C 24.147,15.376 24.358,15.221 24.55,15.083 C 24.718,14.962 24.879,14.832 25.05,14.715 C 25.678,14.284 26.292,13.836 26.939,13.43 L 28.525,12.434 L 28.48,12.516 C 28.242,13.042 28.082,13.606 27.982,14.229 C 27.914,14.651 27.88,15.135 27.902,15.561 C 27.926,16.025 27.968,16.44 28.04,16.899 C 28.081,17.163 28.152,17.448 28.222,17.706 C 28.427,18.46 28.687,19.149 29.008,19.809 L 29.334,20.352 L 29.25,20.374 C 29.196,20.446 29.212,20.55 29.284,20.604 L 29.293,20.659 L 29.306,20.741 L 29.326,20.817 L 29.328,20.882 L 29.345,20.959 L 29.428,20.915 L 29.57,20.745 L 30.164,21.736 L 31.292,23.028 L 30.918,22.863 C 30.032,22.547 29.084,22.286 28.142,22.227 C 27.47,22.185 26.797,22.22 26.154,22.434 C 25.796,22.553 25.539,22.683 25.217,22.874 C 25.004,23.001 24.733,23.231 24.569,23.418 C 24.3,23.725 24.098,24.008 23.916,24.376 C 23.408,25.406 23.352,26.932 23.553,28.048 C 23.624,28.441 23.694,28.808 23.795,29.196 L 24.115,30.128 L 21.751,29.494 L 20.97,29.306 L 20.854,29.268 L 20.662,29.089 C 20.568,28.998 20.416,29 20.324,29.095 L 19.722,28.9 L 18.677,27.938 C 18.576,27.843 18.415,27.848 18.32,27.949 C 18.225,28.05 18.23,28.211 18.331,28.306 L 18.691,28.649 L 18.495,28.61 C 18.275,28.581 18.058,28.535 17.836,28.518 C 17.048,28.458 16.238,28.461 15.504,28.73 L 15.413,28.777 L 15.343,28.788 C 14.844,28.905 14.341,29.107 13.95,29.439 C 13.722,29.632 13.522,29.865 13.362,30.123 L 13.274,30.336 L 12.944,29.74 L 12.154,28.264 L 11.882,27.351 C 11.592,26.435 11.297,25.522 10.996,24.61 L 8.635,17.878 L 8.975,17.747 L 8.976,17.835 L 8.979,17.914 C 8.992,17.981 9.024,18.039 9.103,18.069 C 9.256,18.127 9.335,18.044 9.39,17.877 L 9.455,17.536 L 11.369,16.547 C 13.414,15.261 15.078,13.445 15.909,11.104 L 15.959,10.936 L 18.53,9.037 L 20.406,7.816 Z M 4.653,8.017 L 4.884,8.681 L 5.051,9.15 L 5.028,11.125 L 5.028,12.012 L 4.419,10.35 L 4.492,9.446 L 4.544,8.598 L 4.653,8.017 Z M 6.308,8.039 L 6.288,8.884 L 6.203,10.027 L 5.905,10.264 L 5.834,10.056 L 5.841,9.97 C 5.88,9.412 5.932,8.857 5.979,8.299 L 5.989,8.223 L 6.308,8.039 Z M 10.645,8.108 L 10.671,8.453 L 10.678,8.756 L 10.509,8.881 L 10.645,8.108 Z M 13.882,8.304 L 13.915,8.885 C 13.935,9.123 13.99,9.352 14.041,9.617 L 13.428,10.177 L 13.494,9.394 L 13.586,8.532 L 13.882,8.304 Z M 4.082,8.351 L 4.074,8.569 L 4.021,9.263 L 3.766,8.567 L 3.91,8.452 L 4.082,8.351 Z M 11.515,8.531 L 11.45,9.198 L 11.41,9.728 L 11.208,9.898 L 11.187,8.753 L 11.515,8.531 Z M 9.133,8.663 L 9.169,9.724 L 9.169,10.013 L 8.896,10.244 L 9.09,8.865 L 9.133,8.663 Z M 8.664,8.735 L 8.562,9.265 C 8.495,9.777 8.421,10.285 8.369,10.799 C 8.225,12.235 8.119,13.676 7.927,15.124 L 7.914,14.453 C 7.913,13.318 7.96,12.178 7.997,11.044 C 8.012,10.581 8.038,10.115 8.046,9.652 L 8.06,9.117 L 8.664,8.735 Z M 13.029,8.96 L 13.023,9.021 L 12.891,10.659 L 12.493,11.017 L 12.471,9.74 L 12.474,9.385 L 13.029,8.96 Z M 10.687,9.129 L 10.695,9.452 L 10.694,10.329 L 10.237,10.712 L 10.414,9.336 L 10.687,9.129 Z M 30.058,9.391 C 29.344,9.741 28.636,10.119 27.952,10.524 C 27.603,10.73 27.26,10.946 26.912,11.153 C 26.335,11.497 25.779,11.894 25.217,12.261 C 24.888,12.476 24.58,12.725 24.269,12.964 C 23.899,13.249 23.531,13.535 23.162,13.822 C 22.221,14.553 21.274,15.265 20.315,15.972 L 20.3,16.065 L 20.393,16.08 C 21.549,15.236 22.741,14.43 23.942,13.65 C 24.443,13.325 24.968,13.023 25.458,12.685 C 26.247,12.141 27.086,11.596 27.918,11.118 C 28.693,10.673 29.476,10.227 30.288,9.853 C 30.415,9.79 30.467,9.634 30.404,9.507 C 30.341,9.38 30.185,9.328 30.058,9.391 Z M 7.584,9.419 L 7.545,10.737 L 7.47,14.649 L 7.2,13.905 L 7.333,12.414 C 7.393,11.685 7.441,10.952 7.497,10.219 L 7.584,9.419 Z M 9.924,9.755 L 9.762,11.108 L 9.589,11.251 L 9.602,10.029 L 9.924,9.755 Z M 7.132,9.764 L 6.879,13.015 L 6.517,12.017 L 6.576,10.972 L 6.633,10.146 L 7.132,9.764 Z M 11.946,9.79 L 11.931,10.42 L 11.987,11.472 L 11.716,11.716 L 11.854,9.916 L 11.861,9.856 L 11.946,9.79 Z M 14.15,9.957 L 14.221,10.178 L 13.597,11.548 L 13.221,12.263 L 13.289,11.829 L 13.39,10.625 L 14.15,9.957 Z M 11.371,10.246 L 11.222,12.16 L 11.226,10.837 L 11.217,10.372 L 11.371,10.246 Z M 9.17,10.398 L 9.172,10.91 C 9.175,11.114 9.165,11.317 9.162,11.52 L 9.144,11.619 C 9.067,11.682 9.057,11.794 9.143,11.871 L 9.126,12.775 C 9.088,13.624 9.056,14.475 9.025,15.324 L 9.005,16.168 L 8.58,16.395 L 8.592,16.231 C 8.638,16.029 8.772,15.879 8.984,15.766 L 8.954,15.716 C 8.762,15.805 8.534,16.051 8.515,16.268 L 8.529,16.483 L 8.689,16.418 L 9.003,16.262 L 8.994,16.682 L 8.529,16.953 L 8.336,17.042 L 8.144,16.514 L 8.163,16.424 C 8.337,15.54 8.434,14.682 8.535,13.787 L 8.834,10.685 L 9.17,10.398 Z M 6.174,10.497 L 6.151,10.981 L 6.024,10.611 L 6.174,10.497 Z M 10.693,10.802 L 10.692,13.111 C 10.696,13.689 10.717,14.299 10.771,14.874 L 10.804,15.157 L 9.87,15.71 L 9.689,15.805 L 9.745,15.401 C 9.883,14.154 9.988,12.903 10.117,11.654 L 10.179,11.225 L 10.693,10.802 Z M 32.059,11.04 L 32.236,11.192 C 32.517,11.411 32.799,11.678 33.069,11.914 L 33.767,12.527 L 33.697,12.488 C 33.192,12.613 32.664,12.827 32.193,13.047 C 31.714,13.271 31.238,13.502 30.779,13.765 C 30.491,13.93 30.203,14.093 29.895,14.271 L 29.823,13.82 C 29.822,13.568 29.817,13.327 29.853,13.077 C 29.933,12.516 30.145,11.963 30.575,11.624 L 30.75,11.511 L 31.028,11.39 L 31.164,11.342 L 31.317,11.301 L 31.383,11.286 C 31.466,11.274 31.589,11.256 31.711,11.23 L 31.777,11.218 L 31.873,11.189 C 31.923,11.173 31.967,11.155 31.998,11.135 L 32.059,11.04 Z M 12.856,11.094 L 12.819,11.557 L 12.672,12.629 L 12.505,11.668 L 12.5,11.407 L 12.856,11.094 Z M 5.743,11.177 L 6.092,12.2 L 6.045,13.178 C 6.056,13.661 6.09,14.142 6.16,14.618 L 6.465,15.936 L 5.447,13.155 L 5.491,13.1 C 5.509,13.047 5.514,12.987 5.526,12.925 C 5.626,12.39 5.671,11.837 5.734,11.296 L 5.743,11.177 Z M 9.71,11.609 L 9.508,13.869 L 9.564,12.45 L 9.583,11.714 L 9.71,11.609 Z M 12.007,11.841 L 12.018,12.041 C 12.081,12.539 12.204,13.004 12.389,13.467 L 12.425,13.549 L 12.308,13.664 L 12.326,13.826 L 11.935,14.395 L 11.578,14.657 L 11.498,14.71 L 11.616,13.036 L 11.685,12.124 L 12.007,11.841 Z M 33.842,12.594 L 34.661,13.313 L 37.214,15.598 L 36.663,15.868 C 36.077,16.2 35.506,16.559 34.927,16.925 C 34.188,17.392 33.441,17.881 32.682,18.313 C 32.429,18.457 32.174,18.62 31.917,18.754 L 31.488,18.977 L 30.7,17.325 L 30.648,17.201 L 31.202,16.85 C 32.631,15.99 34.206,15.304 35.78,14.759 C 35.866,14.728 35.911,14.631 35.88,14.545 C 35.849,14.459 35.752,14.414 35.666,14.445 C 34.647,14.799 33.687,15.23 32.732,15.731 C 32.297,15.959 31.852,16.198 31.434,16.455 C 31.244,16.572 31.05,16.685 30.861,16.804 L 30.567,16.997 L 30.461,16.727 C 30.284,16.24 30.132,15.745 30.033,15.262 C 29.994,15.071 29.949,14.891 29.92,14.697 L 29.899,14.51 L 30.35,14.245 C 30.708,14.039 31.078,13.852 31.445,13.663 C 31.81,13.476 32.2,13.288 32.581,13.139 C 32.866,13.027 33.147,12.919 33.439,12.826 C 33.547,12.792 33.658,12.766 33.765,12.732 L 33.842,12.594 Z M 6.514,13.436 L 6.764,14.168 L 6.701,14.81 L 6.67,15.005 L 6.531,14.03 L 6.514,13.436 Z M 13.464,13.648 L 13.233,13.93 L 13.151,14.013 L 13.235,13.886 L 13.292,13.787 L 13.464,13.648 Z M 28.798,14.416 L 28.827,14.601 L 28.903,14.895 L 28.732,15.011 L 28.798,14.416 Z M 7.072,15.069 L 7.412,16.064 L 7.494,16.302 L 7.499,16.453 C 7.511,16.694 7.537,16.935 7.549,17.175 L 7.573,17.309 L 7.634,17.354 L 7.583,17.377 L 7.137,17.559 L 7.07,17.587 L 6.526,16.101 L 6.597,16.234 C 6.7,16.317 6.886,16.277 6.928,16.149 C 6.97,16.022 6.992,15.803 7.005,15.666 L 7.072,15.069 Z M 28.957,15.101 L 29.136,15.783 C 29.256,16.154 29.399,16.52 29.56,16.881 L 29.858,17.469 L 29.403,17.795 L 29.38,17.934 L 29.519,17.957 L 29.95,17.65 L 30.097,17.94 L 30.981,19.277 L 30.964,19.33 L 31.029,19.351 L 31.402,19.915 L 31.776,20.384 L 32.077,20.826 L 31.482,21.285 L 31.438,21.361 L 31.093,21.138 C 30.931,21.024 30.704,21.063 30.589,21.228 L 30.395,20.977 L 30.008,20.287 L 29.996,20.22 L 30.04,20.131 L 30.123,20.051 L 30.041,20.129 L 29.97,20.199 L 29.882,20.056 L 29.686,19.712 C 29.044,18.358 28.628,16.781 28.692,15.379 L 28.703,15.272 L 28.957,15.101 Z M 10.827,15.352 L 10.803,15.534 C 10.639,15.659 10.492,15.797 10.326,15.909 L 9.619,16.319 L 9.672,15.929 L 10.827,15.352 Z M 37.532,15.883 L 38.578,16.819 L 38.48,16.822 C 37.937,17.057 37.394,17.312 36.874,17.596 C 36.49,17.805 36.101,18.008 35.732,18.242 C 34.921,18.756 34.156,19.289 33.379,19.852 L 32.389,20.591 L 32.249,20.363 L 31.968,19.876 L 31.551,19.107 L 31.987,18.884 C 32.272,18.735 32.552,18.572 32.836,18.419 C 33.057,18.3 33.272,18.17 33.491,18.047 C 33.804,17.871 34.119,17.697 34.43,17.516 C 34.988,17.191 35.559,16.888 36.128,16.582 C 36.55,16.355 36.993,16.127 37.432,15.933 L 37.532,15.883 Z M 38.77,16.991 L 39.007,17.203 L 40.195,18.257 L 38.046,19.423 C 37.165,19.94 36.302,20.49 35.454,21.081 C 34.925,21.449 34.384,21.815 33.872,22.208 L 33.714,22.332 L 32.954,21.417 L 32.595,20.904 L 34.012,19.866 C 35.441,18.853 37.041,17.907 38.658,17.222 C 38.713,17.197 38.753,17.152 38.773,17.1 L 38.77,16.991 Z M 8.095,18.05 L 8.485,19.184 L 8.805,21.555 L 7.353,18.285 L 7.561,18.222 L 8.095,18.05 Z M 40.544,18.567 L 41.2,19.149 L 41.454,19.388 L 39.326,20.668 C 38.601,21.149 37.896,21.671 37.192,22.183 L 34.997,23.77 L 34.968,23.576 C 34.87,23.492 34.753,23.42 34.654,23.333 C 34.487,23.186 34.33,23.04 34.171,22.883 L 33.891,22.546 L 34.078,22.411 C 34.251,22.28 34.429,22.151 34.606,22.025 C 35.604,21.315 36.628,20.646 37.682,20.032 L 40.544,18.567 Z M 6.915,18.878 L 7.381,20.09 L 7.667,20.904 L 6.915,18.878 Z M 41.904,19.813 L 43.88,21.676 L 42.83,22.124 C 42.52,22.257 42.199,22.372 41.887,22.502 C 41.502,22.662 41.116,22.823 40.73,22.98 C 39.781,23.366 38.845,23.755 37.928,24.181 L 36.336,25.007 L 35.172,24.111 L 36.075,23.475 C 36.487,23.184 36.894,22.884 37.309,22.596 C 38.309,21.901 39.297,21.225 40.341,20.598 L 41.904,19.813 Z M 32.96,22.025 L 33.427,22.558 L 33.28,22.673 L 31.857,21.633 L 31.74,21.557 L 32.299,21.152 C 32.52,21.458 32.737,21.743 32.96,22.025 Z M 9.272,21.5 L 9.339,21.698 L 10.37,24.812 L 9.594,23.221 L 9.314,21.818 L 9.272,21.5 Z M 44.162,21.942 L 46.676,24.313 L 44.854,25.135 C 44.163,25.503 43.493,25.911 42.819,26.344 C 42.402,26.612 41.976,26.887 41.572,27.175 C 41.312,27.361 41.031,27.572 40.789,27.78 L 40.26,28.202 L 40.188,28.14 L 38.287,26.594 L 39.096,26.15 C 41.053,25.062 43.074,24.046 45.308,23.691 C 45.454,23.663 45.55,23.521 45.522,23.375 C 45.494,23.229 45.352,23.133 45.206,23.161 C 43.545,23.462 41.969,24.165 40.501,24.981 C 40.036,25.24 39.574,25.504 39.11,25.765 L 38.028,26.383 L 36.507,25.146 L 36.566,25.114 C 37.085,24.849 37.603,24.6 38.138,24.369 C 39.329,23.854 40.57,23.421 41.788,22.974 C 42.038,22.882 42.283,22.778 42.531,22.683 C 43.035,22.489 43.569,22.277 44.059,22.05 L 44.162,21.942 Z M 31.368,22.261 L 31.643,22.454 L 32.809,23.326 L 33.914,24.268 L 33.336,23.932 L 33.23,23.885 L 33.051,23.771 C 32.806,23.599 32.556,23.415 32.33,23.219 C 32.096,23.015 31.864,22.797 31.648,22.573 C 31.554,22.476 31.469,22.37 31.368,22.261 Z M 33.601,22.758 L 33.808,22.994 L 34.396,23.513 L 33.761,23.025 L 33.498,22.833 L 33.601,22.758 Z M 28.588,23.52 C 28.872,23.576 29.136,23.647 29.415,23.72 C 29.649,23.782 29.875,23.86 30.106,23.932 C 30.433,24.035 30.768,24.174 31.085,24.306 C 31.471,24.466 31.833,24.635 32.208,24.818 C 32.348,24.886 32.5,24.956 32.635,25.034 C 32.764,25.1 32.909,25.108 33.038,25.067 L 33.248,24.889 L 33.309,24.921 C 33.667,25.117 34.007,25.315 34.377,25.491 C 34.574,25.605 34.827,25.538 34.941,25.341 L 34.964,25.162 L 35.39,25.525 L 35.239,25.606 C 35.187,25.637 35.169,25.707 35.2,25.759 C 35.231,25.811 35.301,25.829 35.353,25.798 L 35.568,25.676 L 36.018,26.06 L 37.054,26.922 L 36.93,26.991 C 36.856,27.031 36.828,27.125 36.868,27.199 C 36.908,27.273 37.002,27.301 37.076,27.261 L 37.308,27.133 L 41.52,30.647 C 41.508,30.702 41.519,30.752 41.549,30.793 L 41.67,30.866 L 41.768,30.842 L 42.624,31.554 L 50.059,38.261 C 51.646,39.695 53.237,41.119 54.843,42.532 C 55.412,43.033 55.979,43.536 56.555,44.029 C 57.636,44.954 58.731,45.854 59.822,46.766 C 60.124,47.018 60.423,47.276 60.726,47.527 C 61.813,48.425 62.87,49.387 63.925,50.322 C 64.961,51.24 65.98,52.175 67.002,53.108 C 67.985,54.005 68.969,54.903 69.945,55.807 L 71.719,57.435 L 71.303,58.603 L 70.969,59.336 L 69.863,60.664 L 69.082,61.7 L 67.358,63.525 L 65.894,65.208 L 65.693,65.045 L 65.871,64.821 C 66.268,64.318 66.689,63.835 67.102,63.346 C 68.185,62.063 69.35,60.816 70.508,59.6 C 70.68,59.409 70.665,59.112 70.474,58.94 C 70.283,58.768 69.986,58.783 69.814,58.974 C 68.36,60.657 66.934,62.364 65.58,64.129 L 65.204,64.65 L 64.642,64.197 C 63.865,63.583 63.065,62.992 62.273,62.398 C 61.295,61.664 60.32,60.925 59.339,60.195 C 57.034,58.48 54.732,56.76 52.423,55.051 L 49.745,53.049 L 47.265,50.95 C 47.376,50.941 47.459,50.842 47.45,50.732 C 47.441,50.622 47.342,50.539 47.232,50.548 L 46.839,50.594 L 42.255,46.723 C 40.028,44.891 37.759,43.118 35.481,41.351 C 34.292,40.428 33.113,39.485 31.915,38.575 L 28.994,36.3 L 29.088,36.315 C 29.146,36.301 29.199,36.266 29.232,36.212 C 29.298,36.104 29.264,35.96 29.156,35.894 C 28.945,35.759 28.741,35.629 28.533,35.489 C 28.341,35.36 28.155,35.197 27.975,35.052 C 27.615,34.762 27.238,34.366 26.937,34.014 C 26.672,33.704 26.434,33.393 26.212,33.071 L 25.922,32.606 L 26.034,32.534 C 26.191,32.305 26.133,31.991 25.904,31.834 L 25.297,31.479 L 25.106,31.09 C 24.969,30.815 24.874,30.507 24.765,30.22 C 24.651,29.922 24.554,29.596 24.474,29.266 L 24.328,28.522 L 24.601,29.29 C 24.873,29.908 25.184,30.51 25.516,31.1 C 25.724,31.471 25.942,31.869 26.176,32.223 C 26.284,32.386 26.388,32.559 26.491,32.726 C 26.6,32.902 26.722,33.071 26.831,33.246 C 26.943,33.425 27.068,33.606 27.19,33.779 C 27.341,33.993 27.483,34.216 27.638,34.427 C 27.758,34.591 27.896,34.768 28.005,34.937 C 28.075,35.034 28.211,35.056 28.308,34.986 C 28.405,34.916 28.427,34.78 28.357,34.683 C 28.266,34.546 28.161,34.412 28.066,34.278 C 27.83,33.946 27.586,33.602 27.368,33.259 C 26.906,32.534 26.43,31.815 26.027,31.053 C 25.917,30.845 25.797,30.636 25.693,30.425 C 25.551,30.136 25.415,29.844 25.276,29.554 C 25.097,29.18 24.928,28.758 24.797,28.365 C 24.649,27.922 24.517,27.483 24.429,27.036 L 24.34,25.792 L 24.389,25.478 C 24.5,25.078 24.666,24.695 24.915,24.316 C 25.039,24.126 25.204,23.965 25.369,23.811 L 25.618,23.647 C 26.49,23.214 27.647,23.335 28.588,23.52 Z M 47.102,24.725 L 48.604,26.183 L 46.225,27.378 C 45.889,27.574 45.562,27.784 45.228,27.984 C 45.046,28.093 44.874,28.217 44.695,28.331 C 44.402,28.517 44.118,28.713 43.833,28.911 L 42.345,29.986 L 40.527,28.43 L 41.222,27.915 C 41.413,27.783 41.611,27.658 41.8,27.525 C 42.63,26.939 43.506,26.405 44.412,25.929 L 47.102,24.725 Z M 49.052,26.618 L 49.938,27.477 L 48.749,28.15 C 47.513,28.893 46.279,29.767 45.153,30.668 L 44.14,31.499 L 43.788,31.223 L 43.715,31.159 L 42.652,30.249 L 44.799,28.764 C 45.828,28.123 46.893,27.541 48.001,27.05 L 49.052,26.618 Z M 50.375,27.901 L 51.724,29.21 L 51.359,29.393 C 50.517,29.857 49.705,30.383 48.925,30.91 C 48.176,31.415 47.439,31.938 46.689,32.441 L 45.959,32.924 L 44.433,31.729 L 44.764,31.455 C 45.19,31.116 45.625,30.783 46.064,30.462 C 46.926,29.831 47.833,29.244 48.769,28.708 L 50.375,27.901 Z M 10.969,27.953 L 11.626,29.303 L 11.764,29.562 L 11.857,29.896 L 12.306,31.349 L 11.872,30.376 L 11.757,30.091 L 11.354,29.067 L 10.969,27.953 Z M 16.954,29.058 C 17.656,29.111 18.334,29.244 19.017,29.41 L 19.75,29.63 L 19.955,29.819 L 19.945,29.903 C 19.963,29.972 20.008,30.033 20.075,30.071 L 20.5,30.322 L 21.126,30.899 L 25.928,35.153 L 25.429,35.277 C 24.717,35.463 24.012,35.657 23.303,35.853 C 22.01,36.21 20.721,36.588 19.44,36.989 L 17.312,37.698 L 15.77,36.177 L 15.42,35.81 L 16.148,35.576 C 16.746,35.412 17.352,35.271 17.942,35.151 C 18.29,35.08 18.637,35.001 18.986,34.936 C 20.44,34.667 21.898,34.425 23.355,34.179 L 23.422,34.086 L 23.329,34.019 C 21.569,34.316 19.803,34.596 18.061,34.995 C 17.429,35.139 16.808,35.288 16.192,35.458 L 15.341,35.728 L 14.286,34.622 L 14.587,34.483 L 14.747,34.726 C 14.857,34.914 15.101,34.978 15.289,34.868 C 15.477,34.758 15.541,34.514 15.431,34.326 L 15.368,34.204 L 15.946,34.003 C 16.822,33.738 17.719,33.54 18.607,33.378 C 19.479,33.219 20.348,33.052 21.223,32.912 C 21.274,32.904 21.309,32.853 21.301,32.802 C 21.293,32.751 21.242,32.716 21.191,32.724 C 20.146,32.92 19.079,33.068 18.042,33.301 C 17.596,33.401 17.154,33.504 16.711,33.612 C 16.39,33.69 16.076,33.797 15.758,33.887 L 15.287,34.047 L 14.696,32.896 L 14.484,32.515 L 15.529,32.243 C 16.061,32.107 16.589,31.955 17.121,31.818 C 17.775,31.649 18.435,31.5 19.096,31.361 C 19.156,31.349 19.194,31.289 19.182,31.229 C 19.17,31.169 19.11,31.131 19.05,31.143 C 17.925,31.382 16.796,31.649 15.692,31.97 L 14.387,32.34 L 13.689,31.083 L 13.769,30.776 C 13.908,30.433 14.045,30.15 14.28,29.859 C 14.413,29.693 14.561,29.55 14.721,29.429 L 15.108,29.198 L 15.984,29.047 C 16.078,29.042 16.174,29.044 16.267,29.037 C 16.483,29.021 16.737,29.042 16.954,29.058 Z M 14.285,29.548 L 13.95,30.004 L 13.577,30.882 L 13.404,30.569 L 13.692,30.092 C 13.854,29.878 14.043,29.702 14.285,29.548 Z M 52.141,29.615 L 53.24,30.682 L 52.935,30.842 C 52.28,31.211 51.635,31.598 50.995,31.992 L 47.509,34.146 L 46.28,33.177 L 47.8,32.174 C 48.684,31.579 49.573,31.019 50.485,30.47 C 50.756,30.307 51.043,30.164 51.321,30.013 L 52.141,29.615 Z M 22.47,30.776 L 23.295,31.247 C 23.596,31.441 23.893,31.639 24.192,31.835 C 24.582,32.09 24.957,32.389 25.34,32.665 L 26.176,33.86 L 26.972,34.718 L 25.075,33.131 L 24.13,32.285 L 23.848,32.062 L 22.47,30.776 Z M 24.352,30.817 L 24.432,30.974 L 24.277,30.884 L 24.352,30.817 Z M 53.673,31.111 L 54.41,31.817 L 55.436,32.826 L 53.082,34.033 C 52.16,34.504 51.228,34.955 50.306,35.426 L 49.594,35.788 L 47.829,34.397 L 49.388,33.473 C 49.965,33.136 50.542,32.798 51.119,32.46 C 51.437,32.274 51.767,32.101 52.089,31.921 C 52.593,31.639 53.108,31.377 53.673,31.111 Z M 56.928,32.742 L 57.353,33.089 L 58.052,33.669 L 57.972,33.707 L 56.928,32.742 Z M 13.533,32.763 L 13.991,33.577 L 14.502,34.354 L 14.163,34.496 L 13.796,34.134 L 13.691,33.713 L 13.451,32.786 L 13.533,32.763 Z M 55.859,33.241 L 56.142,33.52 L 56.871,34.25 L 53.802,35.895 C 53.06,36.289 52.301,36.687 51.532,37.025 L 51.291,37.125 L 49.911,36.037 L 53.114,34.503 C 53.75,34.211 54.388,33.909 55.029,33.629 L 55.859,33.241 Z M 58.557,34.088 L 59.599,34.953 L 59.412,35.038 L 58.435,34.135 L 58.557,34.088 Z M 57.22,34.599 L 58.205,35.585 L 58.063,35.65 C 56.8,36.299 55.602,37.052 54.382,37.777 C 54.061,37.968 53.741,38.165 53.417,38.35 L 53.084,38.538 L 51.409,37.218 L 51.625,37.13 C 52.377,36.81 53.137,36.46 53.874,36.106 L 57.22,34.599 Z M 60.149,35.41 L 61.319,36.436 L 61.117,36.536 L 59.929,35.494 L 60.149,35.41 Z M 26.256,35.453 L 26.486,35.648 L 30.042,38.636 L 29.31,38.724 C 28.614,38.819 27.919,38.931 27.225,39.041 C 26.378,39.176 25.518,39.298 24.677,39.462 C 23.767,39.639 22.86,39.832 21.957,40.042 L 20.581,40.399 L 19.131,39.253 L 17.515,37.882 L 19.34,37.291 C 20.565,36.929 21.798,36.595 23.039,36.281 C 23.819,36.083 24.606,35.896 25.382,35.685 C 25.662,35.609 25.962,35.549 26.256,35.453 Z M 58.61,35.997 L 59.805,37.191 L 58.805,37.692 C 58.533,37.834 58.268,37.992 57.999,38.14 C 57.555,38.384 57.131,38.65 56.704,38.921 C 56.461,39.075 56.211,39.237 55.981,39.41 C 55.773,39.567 55.552,39.712 55.353,39.881 C 55.246,39.963 55.226,40.119 55.308,40.226 C 55.39,40.333 55.546,40.353 55.653,40.271 C 56.761,39.393 58.043,38.685 59.316,38.076 L 60.258,37.644 L 61.229,38.615 L 59.842,39.299 C 58.887,39.852 57.988,40.493 57.174,41.31 C 57.071,41.409 57.067,41.575 57.166,41.678 C 57.265,41.781 57.431,41.785 57.534,41.686 C 57.675,41.551 57.818,41.401 57.966,41.275 C 58.207,41.07 58.443,40.881 58.692,40.688 C 58.93,40.503 59.196,40.332 59.452,40.173 C 60.003,39.831 60.572,39.534 61.153,39.262 L 61.661,39.046 L 62.522,39.906 L 62.8,40.193 L 61.461,40.873 C 61.245,40.982 61.024,41.101 60.805,41.202 C 60.456,41.363 60.11,41.533 59.755,41.681 C 59.414,41.823 59.074,41.949 58.729,42.081 C 58.658,42.106 58.622,42.186 58.647,42.257 C 58.672,42.328 58.752,42.364 58.823,42.339 C 59.183,42.203 59.548,42.078 59.905,41.933 C 60.352,41.752 60.794,41.562 61.238,41.373 L 63.168,40.572 L 64.525,41.97 L 63.3,42.613 L 60.462,44.362 L 55.623,40.539 L 53.404,38.79 L 54.502,38.167 C 55.848,37.398 57.165,36.643 58.61,35.997 Z M 61.962,36.916 L 62.958,37.766 L 62.846,37.818 L 62.681,37.899 L 61.68,37.029 L 61.962,36.916 Z M 63.537,38.259 L 64.71,39.26 L 64.404,39.396 L 63.235,38.38 L 63.537,38.259 Z M 30.237,38.802 L 31.36,39.8 L 32.345,40.611 L 30.535,40.778 C 28.656,40.953 26.784,41.168 25.025,41.795 L 23.322,42.567 L 20.724,40.512 L 21.677,40.274 C 22.268,40.155 22.858,40.041 23.45,39.928 C 23.86,39.85 24.274,39.793 24.686,39.721 C 25.215,39.629 25.744,39.539 26.274,39.451 C 27.296,39.28 28.325,39.142 29.347,38.968 L 30.237,38.802 Z M 65.31,39.771 L 66.423,40.721 C 66.503,40.801 66.595,40.883 66.662,40.997 L 66.412,41.1 L 64.971,39.884 L 65.31,39.771 Z M 64.056,40.204 L 65.555,41.46 L 65.265,41.596 L 63.972,40.239 L 64.056,40.204 Z M 32.6,40.821 L 34.827,42.655 L 35.03,42.827 L 34.846,42.865 C 33.859,43.021 32.871,43.169 31.882,43.32 C 30.1,43.592 28.224,43.922 26.58,44.687 L 26.531,44.808 L 26.652,44.857 C 28.07,44.209 29.601,43.899 31.134,43.661 C 31.61,43.587 32.09,43.533 32.567,43.466 L 35.329,43.079 L 37.159,44.626 L 36.712,44.718 C 35.944,44.892 35.163,45.131 34.413,45.37 C 33.616,45.624 32.814,45.866 32.01,46.096 C 31.498,46.242 30.981,46.357 30.46,46.469 C 30.084,46.55 29.685,46.59 29.304,46.645 C 29.239,46.653 29.192,46.714 29.2,46.779 C 29.208,46.844 29.269,46.891 29.334,46.883 C 29.742,46.823 30.14,46.775 30.547,46.7 C 31.495,46.525 32.443,46.26 33.369,45.995 C 34.593,45.644 35.885,45.249 37.172,45.018 L 37.56,44.967 L 39.205,46.378 L 38.423,46.531 C 38.078,46.6 37.723,46.696 37.383,46.788 C 36.542,47.016 35.706,47.258 34.868,47.495 C 34.254,47.669 33.642,47.832 33.024,47.991 C 32.878,48.029 32.728,48.071 32.581,48.104 C 32.198,48.189 31.811,48.267 31.429,48.354 C 31.365,48.367 31.323,48.431 31.336,48.495 C 31.349,48.559 31.413,48.601 31.477,48.588 C 31.867,48.499 32.262,48.43 32.652,48.337 C 33.322,48.178 33.989,48.013 34.655,47.84 C 35.553,47.607 36.45,47.369 37.353,47.156 C 37.768,47.058 38.187,46.975 38.604,46.885 L 39.602,46.718 L 41.293,48.168 L 40.512,48.304 C 39.784,48.479 39.106,48.703 38.399,48.945 C 37.628,49.21 36.862,49.531 36.104,49.834 C 35.44,50.1 34.772,50.349 34.106,50.609 C 34.029,50.637 33.99,50.724 34.018,50.801 C 34.046,50.878 34.133,50.917 34.21,50.889 C 34.973,50.598 35.734,50.308 36.494,50.008 C 37.446,49.632 38.424,49.247 39.408,48.962 C 39.871,48.828 40.341,48.695 40.814,48.601 C 41.076,48.549 41.34,48.507 41.613,48.455 L 44.473,50.903 L 42.503,51.279 L 35.94,52.798 L 31.291,49.135 L 25.71,44.455 L 23.448,42.666 L 24.995,41.962 C 26.674,41.36 28.51,41.136 30.265,41.008 L 32.6,40.821 Z M 67.234,41.529 L 67.474,41.782 L 67.838,42.172 L 67.729,42.211 L 67.016,41.609 L 67.234,41.529 Z M 66.153,41.96 L 66.84,42.535 L 66.364,42.75 L 65.766,42.122 L 66.01,42.02 L 66.153,41.96 Z M 64.998,42.458 L 65.089,42.552 L 65.609,43.09 L 63.679,43.961 C 63.44,44.083 63.205,44.212 62.97,44.341 C 62.769,44.451 62.541,44.569 62.351,44.695 C 62.231,44.764 62.19,44.919 62.259,45.039 C 62.328,45.159 62.483,45.2 62.603,45.131 C 63.311,44.711 64.039,44.339 64.781,43.999 L 65.998,43.493 L 66.856,44.38 L 66.788,44.404 C 66.001,44.714 65.227,45.058 64.446,45.432 L 62.881,46.273 L 60.871,44.685 L 61.36,44.367 C 61.985,43.986 62.614,43.635 63.252,43.303 L 64.998,42.458 Z M 68.26,42.627 L 68.345,42.716 L 68.406,42.783 L 68.26,42.627 Z M 67.338,42.953 L 67.971,43.483 L 68.438,43.835 L 67.654,44.105 L 66.767,43.173 L 67.051,43.055 L 67.338,42.953 Z M 69.127,44.354 L 71.341,46.022 L 72.151,46.927 L 72.163,47.169 L 71.894,47.347 L 71.846,47.583 L 70.873,47.979 L 69.871,46.682 L 69.738,46.524 L 70.444,46.211 C 70.61,46.134 70.681,45.935 70.604,45.769 C 70.527,45.603 70.328,45.532 70.162,45.609 L 69.312,46.017 L 68.169,44.658 L 69.127,44.354 Z M 67.374,44.91 L 68.801,46.263 L 67.728,46.78 L 65.172,48.084 L 64.88,47.853 L 63.354,46.647 L 63.811,46.401 C 64.453,46.074 65.107,45.768 65.783,45.496 C 66.158,45.345 66.531,45.196 66.911,45.058 L 67.374,44.91 Z M 69.284,46.72 L 70.691,48.053 L 69.59,48.502 C 68.836,48.837 68.094,49.197 67.361,49.588 L 67.201,49.69 L 65.592,48.416 L 66.641,47.88 C 67.116,47.659 67.597,47.45 68.08,47.239 L 69.284,46.72 Z M 62.187,47.279 L 62.244,47.315 L 64.076,48.738 L 63.931,48.827 L 63.586,48.516 L 62.187,47.279 Z M 71.931,48.309 L 72.078,49.201 L 72.146,49.819 L 70.809,50.443 C 70.398,50.666 69.909,50.941 69.564,51.255 C 69.507,51.301 69.475,51.367 69.469,51.435 L 69.497,51.528 L 68.037,50.352 L 67.729,50.108 L 68.815,49.548 C 69.344,49.293 69.895,49.059 70.453,48.841 L 71.228,48.562 L 71.583,48.899 L 71.302,48.536 L 71.931,48.309 Z M 64.483,49.054 L 66.083,50.296 L 66.164,50.358 L 65.882,50.551 L 64.304,49.163 L 64.483,49.054 Z M 72.212,50.412 L 72.298,51.187 L 72.318,51.64 L 72.145,52.555 L 71.987,53.803 L 69.861,51.821 L 69.732,51.717 L 69.904,51.665 C 70.414,51.234 70.998,50.98 71.597,50.685 L 72.212,50.412 Z M 66.619,50.704 L 69.413,52.831 L 71.895,54.536 L 71.783,55.426 C 71.776,55.523 71.762,55.631 71.764,55.735 L 71.845,56.015 L 68.196,52.671 L 66.252,50.919 L 66.619,50.704 Z M 44.849,51.224 L 46.986,53.053 L 45.213,53.36 C 44.748,53.463 44.278,53.546 43.814,53.654 C 42.153,54.041 40.464,54.443 38.837,54.958 L 38.808,55.009 L 36.181,52.988 L 36.072,52.902 L 38.141,52.431 C 39.398,52.15 40.658,51.88 41.924,51.648 L 44.849,51.224 Z M 47.389,53.398 L 48.77,54.58 L 49.248,54.991 L 48.906,55.049 C 48.433,55.133 47.948,55.245 47.48,55.354 C 46.74,55.526 46.001,55.698 45.262,55.874 C 44.336,56.095 43.418,56.345 42.494,56.568 L 41.258,56.89 L 40.912,56.629 L 38.889,55.072 L 41.43,54.382 C 42.297,54.179 43.17,54.003 44.026,53.848 C 44.564,53.75 45.106,53.675 45.646,53.59 L 47.389,53.398 Z M 49.624,55.313 L 51.249,56.709 L 50.558,56.858 C 50.014,56.989 49.471,57.145 48.934,57.301 C 48.081,57.549 47.229,57.796 46.372,58.031 L 43.6,58.656 L 41.359,56.966 L 42.834,56.599 C 44.677,56.166 46.52,55.824 48.388,55.521 L 49.624,55.313 Z M 71.88,56.047 L 72.091,56.17 L 72.077,56.227 L 71.88,56.047 Z M 51.593,57.004 L 53.836,58.931 L 52.083,59.216 C 51.682,59.308 51.281,59.397 50.881,59.494 C 50.239,59.649 49.602,59.825 48.961,59.984 C 48.28,60.153 47.601,60.331 46.919,60.499 L 46.293,60.638 L 44.754,59.527 L 43.71,58.74 L 44.201,58.664 C 44.399,58.636 44.598,58.588 44.795,58.55 C 45.179,58.476 45.564,58.378 45.946,58.294 C 46.603,58.15 47.261,57.988 47.915,57.831 C 48.883,57.598 49.863,57.352 50.849,57.135 L 51.593,57.004 Z M 54.391,59.401 L 56.199,60.93 L 56.833,61.454 L 56.337,61.52 C 55.736,61.635 55.151,61.748 54.557,61.898 C 53.47,62.173 52.405,62.506 51.328,62.815 C 50.93,62.929 50.533,63.05 50.135,63.16 L 49.878,63.228 L 46.637,60.887 L 46.817,60.849 C 47.332,60.736 47.849,60.618 48.363,60.5 C 49.746,60.183 51.135,59.886 52.537,59.662 C 52.946,59.597 53.35,59.522 53.762,59.469 L 54.391,59.401 Z M 45.741,61.078 L 48.987,63.466 L 48.937,63.48 L 48.881,63.576 L 48.977,63.632 L 49.151,63.586 L 50.337,64.459 L 51.762,65.455 L 51.697,65.475 L 51.133,65.605 L 49.468,64.193 L 45.69,61.089 L 45.741,61.078 Z M 57.294,61.84 L 59.458,63.625 L 57.989,63.734 C 56.72,63.923 55.447,64.339 54.224,64.719 L 52.637,65.193 L 51.663,64.518 L 50.05,63.352 L 50.177,63.32 C 50.528,63.228 50.876,63.127 51.228,63.038 C 51.649,62.931 52.069,62.817 52.489,62.706 C 53.118,62.541 53.764,62.396 54.401,62.263 C 55.065,62.125 55.766,62.003 56.441,61.937 C 56.721,61.91 57.009,61.873 57.294,61.84 Z M 59.911,62.68 L 60.432,63.091 C 61.183,63.654 61.93,64.208 62.698,64.749 L 64.332,65.863 L 64.123,66.153 L 62.872,66.186 C 62.055,66.241 61.227,66.343 60.413,66.437 C 59.036,66.596 57.662,66.786 56.299,67.038 L 55.475,67.207 L 53.993,66.134 L 52.907,65.38 L 54.05,65.066 C 55.834,64.56 57.627,64.081 59.493,64.056 C 59.612,64.054 59.706,63.954 59.701,63.829 L 60.021,64.09 C 60.237,64.267 60.557,64.235 60.734,64.019 C 60.911,63.803 60.879,63.483 60.663,63.306 L 59.911,62.68 Z M 52.009,65.628 L 53.013,66.33 L 54.597,67.389 L 53.533,67.659 L 52.427,66.702 L 51.353,65.791 L 51.712,65.71 L 52.009,65.628 Z M 65.136,65.747 L 65.315,65.875 L 65.095,66.127 L 65.072,66.113 C 65.113,66.061 65.127,66.001 65.119,65.944 L 65.06,65.844 L 65.136,65.747 Z M 65.052,66.177 L 64.542,66.777 L 64.405,66.743 L 64.767,66.219 L 64.928,66.196 L 65.052,66.177 Z M 64.008,66.314 L 63.577,66.915 L 63.438,66.947 C 62.663,67.131 61.842,67.384 61.093,67.657 C 60.469,67.884 59.852,68.12 59.24,68.379 L 58.729,68.605 L 57.581,68.838 C 57.263,68.562 56.94,68.297 56.617,68.033 L 55.668,67.346 L 59.076,66.825 C 60.255,66.687 61.438,66.581 62.626,66.483 L 64.008,66.314 Z M 55.406,67.93 L 57.283,68.913 L 57.191,68.933 C 56.694,69.024 56.191,69.111 55.689,69.172 L 55.215,69.212 L 54.1,68.15 L 53.696,67.801 L 54.818,67.537 L 55.406,67.93 Z M 59.107,69.281 L 58.848,69.391 C 58.403,69.6 57.967,69.828 57.545,70.077 L 56.706,70.632 L 56.297,70.243 L 58.092,69.46 L 59.107,69.281 Z M 56.186,69.756 L 55.918,69.882 L 55.835,69.803 L 56.186,69.756 Z" stroke="none" fill="#000000" stroke-width="0.5" fill-rule="evenodd" marker-start="none" marker-end="none" stroke-miterlimit="79.8403193612775"/></g></g></g><text x="0" y="90" fill="#000000" font-size="5px" font-weight="bold" font-family="'Helvetica Neue', Helvetica, Arial-Unicode, Arial, Sans-serif">Created by Denis Sazhin</text><text x="0" y="95" fill="#000000" font-size="5px" font-weight="bold" font-family="'Helvetica Neue', Helvetica, Arial-Unicode, Arial, Sans-serif">from the Noun Project</text></svg>